<svg width="910" height="768" viewBox="0 0 910 768" fill="none" xmlns="http://www.w3.org/2000/svg">
<path d="M831.32 392.727C831.32 365.498 828.876 339.316 824.338 314.182H462.68V462.895H669.342C660.265 510.72 633.036 551.215 592.193 578.444V675.142H716.818C789.429 608.116 831.32 509.673 831.32 392.727Z" fill="#4285F4"/>
<path d="M462.68 768C566.36 768 653.284 733.789 716.818 675.142L592.193 578.444C557.982 601.484 514.346 615.447 462.68 615.447C362.84 615.447 278.011 548.073 247.64 457.309H119.873V556.451C183.058 681.775 312.571 768 462.68 768Z" fill="#34A853"/>
<path d="M247.64 456.96C239.96 433.92 235.422 409.484 235.422 384C235.422 358.516 239.96 334.08 247.64 311.04V211.898H119.873C93.691 263.564 78.6801 321.862 78.6801 384C78.6801 446.138 93.691 504.436 119.873 556.102L219.364 478.604L247.64 456.96Z" fill="#FBBC05"/>
<path d="M462.68 152.902C519.233 152.902 569.502 172.451 609.647 210.153L719.611 100.189C652.935 38.0509 566.36 0 462.68 0C312.571 0 183.058 86.2255 119.873 211.898L247.64 311.04C278.011 220.276 362.84 152.902 462.68 152.902Z" fill="#EA4335"/>
</svg>
