<svg width="2138" height="1187" viewBox="0 0 2138 1187" fill="none" xmlns="http://www.w3.org/2000/svg">
<path d="M215.1 513.1C218.833 509.767 222.667 506.4 226.6 503C226.6 503 388.7 343.5 713.2 453.5C807.4 485.4 911.1 452.9 970.3 372C1114.3 175.5 1402.4 -121.8 1736.9 54.9C1736.9 54.9 2131.4 221.7 2066.6 656C2056.2 725.5 2070.2 796.2 2105.6 856.6C2106.27 857.867 2106.97 859.1 2107.7 860.3C2189.7 1003.1 2092.5 1186.8 1936 1186.3L442.9 1181.2C114 1180 -36.4001 740.1 215.1 513.1Z" fill="#D2E01C"/>
<path d="M1573.6 186.7H1728.5C1779.2 186.7 1820.3 227.7 1820.3 278.4C1820.3 329.1 1779.2 370.2 1728.5 370.2H1622.9L1544.1 426.4L1554.8 368.3C1513.1 359.6 1481.8 322.7 1481.8 278.4C1481.8 227.7 1522.9 186.7 1573.6 186.7Z" fill="#646F62"/>
<path d="M1751.2 258.3H1556.5C1555.5 258.3 1554.6 257 1554.6 255.4C1554.6 253.8 1555.5 252.5 1556.5 252.5H1751.2C1752.3 252.5 1753.2 253.8 1753.2 255.4C1753.2 257 1752.3 258.3 1751.2 258.3Z" fill="#FEFAE0"/>
<path d="M1635 298H1556.5C1555.5 298 1554.6 296.7 1554.6 295.1C1554.6 293.5 1555.5 292.2 1556.5 292.2H1635C1636 292.2 1636.9 293.5 1636.9 295.1C1636.9 296.7 1636 298 1635 298Z" fill="#FEFAE0"/>
<path d="M343.2 1165.5L297.5 1172.3L293.2 1172.9L291.2 1173.2L288.4 1173.6C286.733 1173.87 285.066 1174.03 283.4 1174.1C271.6 1174.7 260 1170.8 251.1 1163.4C209 1128.4 140.4 1124.5 114.1 1076.2C104.4 1058.5 102.5 1025.7 89.7998 1009.8C73.4998 989.4 42.8998 979.5 33.2998 955.7C25.1998 935.3 35.2998 911.2 25.8998 891.3C21.3998 881.8 12.7998 874.5 6.79979 865.7C0.799788 856.9 -2.40021 844.7 4.29979 836.3C13.6998 824.5 33.9998 829.2 46.4998 838.1C58.8998 846.9 70.2998 859.3 85.8998 860.6C106.3 862.3 126.1 843.9 145.4 850.3C171.8 859 165.7 902.4 191.5 912.6C200.6 916.2 211 914.4 220.8 915.8C242 918.8 257.5 936.8 264.3 955.8C271.2 974.8 271.4 995.3 275 1015C278.5 1034.8 286.3 1055.3 303.6 1067.1C310.2 1071.6 317.9 1074.5 324 1079.6C346.1 1097.8 334 1127.2 339.3 1153.6C339.566 1154.87 339.9 1156.17 340.3 1157.5C341.033 1160.17 342 1162.83 343.2 1165.5Z" fill="#869482"/>
<path d="M297.5 1172.3L293.2 1172.9C257.9 1101.7 202.5 1011.9 119.8 931C119.3 930.5 119.6 929.6 120.5 929.1C121.4 928.6 122.6 928.6 123.2 929.1C209.2 1013.3 265.1 1106.6 297.5 1172.3Z" fill="white"/>
<path d="M393.5 1024.1C401.4 1047.1 392.1 1072.5 380.1 1092.3C368.4 1111.9 362.3 1137.8 346.4 1154.8C340.4 1161.2 333.3 1166.9 325.1 1170.3C321.8 1171.6 319.1 1173.6 315.8 1175C312.3 1176.3 308.4 1176.6 304.6 1176.9C303.667 1176.97 302.733 1177 301.8 1177C300.467 1177.13 299.1 1177.2 297.7 1177.2C294.5 1177.3 291.3 1177.2 288.2 1176.6C282.8 1175.7 277.4 1173.4 273.8 1169.2C270.3 1165 268.8 1159.4 268.3 1153.9C267.8 1148.4 268.2 1142.8 267.6 1137.4C265.9 1120.7 256.1 1106.1 245.3 1093.1C244.033 1091.63 242.8 1090.2 241.6 1088.8C238.4 1085.1 235.1 1081.5 232 1077.9C218.7 1062.6 209.8 1045.9 201 1027.9C191.8 1009.5 182.5 990.1 182.2 969.1C181.7 942.1 200.9 920.7 200.9 894.5C201 864.3 180.9 841.4 167.1 816.6C156.8 797.9 153.4 770.9 170.5 758C179.3 751.4 191.4 750.4 200 743.7C214 732.8 213.9 712.1 214.3 694.5C214.8 676.7 220.2 655.2 237.3 650.7C252.9 646.7 267.8 660.1 275.4 674.4C283 688.6 287.3 705.2 299 716.3C315.9 732.3 345.1 733.4 357.2 753.3C375 782.6 340.7 826.8 363.3 852.6C371 861.4 383.6 864.8 391.4 873.7C404.4 888.4 399.3 911.4 391 929.3C382.8 947.2 371.9 965.9 375.8 985.1C378.6 999.2 388.9 1010.5 393.5 1024.1Z" fill="#B2C5AE"/>
<path d="M310 1079.1C308.8 1120.2 305.1 1154 301.8 1177C300.467 1177.13 299.1 1177.2 297.7 1177.2C307.3 1109.8 320.6 948.4 263.9 775.3C263.7 774.6 264.3 774 265.4 774C266.5 773.9 267.5 774.5 267.8 775.2C306.6 893.7 312.2 1005.9 310 1079.1Z" fill="white"/>
<path d="M1850 1181.6H1790.9C1848.7 961.2 2018.9 971.4 2050.4 972.1C2054.5 972.2 2056.7 972.4 2056.7 972.4C2026.9 1195.1 1850 1181.6 1850 1181.6Z" fill="#869482"/>
<path d="M1970.9 647.7C1970.6 646.5 1970.3 646 1970.3 646C1614.6 833.9 1793 1181.2 1790.9 1181.6H1820.9C1832.9 1181.6 1844.5 1177.5 1853.3 1170C2074.1 980.8 1979.7 673 1970.9 647.7Z" fill="#B2C5AE"/>
<path d="M361.2 500.7C357.2 515.1 349.5 527.5 339.5 537.2C319.1 557 288.9 565.7 259.6 557.4C215.8 545 190.5 499.4 202.9 455.7C213.9 417 250.9 392.6 289.5 396.2C294.5 396.7 299.6 397.6 304.5 399C348.3 411.4 373.7 457 361.2 500.7Z" fill="#C9DDC3"/>
<path d="M342.7 422.6L282.1 478.2C282.1 478.2 286.3 431.1 289.5 396.2C294.5 396.7 299.6 397.6 304.5 399C319.8 403.3 332.8 411.7 342.7 422.6Z" fill="#F5FCF3"/>
<path d="M1195.4 1180.9H329.2C302 1180.9 282 1155.5 288.3 1129.1L461.2 408.6C467.5 382.2 483.5 363.6 510.7 363.6H1377.7C1397.1 363.6 1411.4 381.7 1406.9 400.6L1225.4 1157.2C1222.1 1171.1 1209.6 1180.9 1195.4 1180.9Z" fill="#F8B467"/>
<path d="M1282.1 1180.9H397.8C381.9 1180.9 369.6 1164.3 371.7 1148.4L467.1 399.7C469.9 379 487.5 363.6 508.4 363.6H1382.6C1400.1 363.6 1413.7 379 1411.3 396.5L1308.3 1158C1306.5 1171.1 1295.3 1180.9 1282.1 1180.9Z" fill="#869482"/>
<path d="M1416.5 397.2C1416.1 378.5 1400.8 363.6 1382.1 363.6H505.8C487.2 363.6 472.3 378.8 472.7 397.4L485.5 1147.1C485.9 1165.9 501.2 1180.9 519.9 1180.9H1397.4C1416.7 1180.9 1432.2 1165 1431.8 1145.7L1416.5 397.2Z" fill="#4E564C"/>
<path d="M1517 1182.9H659.8C637.2 1182.9 617.8 1166.7 613.7 1144.5L500.6 531.6L478.6 412.4C474.1 388 492.8 365.6 517.6 365.6H1376.6C1398.1 365.6 1416.6 381 1420.5 402.2L1444.4 531.6L1556 1136C1560.5 1160.4 1541.8 1182.9 1517 1182.9Z" fill="#C9DDC3"/>
<path d="M673.4 772.2H632.7C627.2 772.2 622.6 768.4 621.4 763.1L612.8 721.8C611.3 714.7 616.8 708 624.1 708H664.8C670.2 708 674.9 711.8 676 717.1L684.7 758.4C686.1 765.5 680.7 772.2 673.4 772.2Z" fill="#F2EFF8"/>
<path d="M795.4 772.2H754.6C749.2 772.2 744.5 768.4 743.4 763.1L734.8 721.8C733.3 714.7 738.7 708 746 708H786.7C792.2 708 796.9 711.8 798 717.1L806.6 758.4C808.1 765.5 802.6 772.2 795.4 772.2Z" fill="#F2EFF8"/>
<path d="M917.3 772.2H876.5C871.1 772.2 866.4 768.4 865.3 763.1L856.7 721.8C855.2 714.7 860.6 708 867.9 708H908.7C914.1 708 918.8 711.8 919.9 717.1L928.5 758.4C930 765.5 924.6 772.2 917.3 772.2Z" fill="#F2EFF8"/>
<path d="M1039.2 772.2H998.5C993 772.2 988.4 768.4 987.2 763.1L978.6 721.8C977.1 714.7 982.6 708 989.9 708H1030.6C1036.1 708 1040.7 711.8 1041.8 717.1L1050.5 758.4C1052 765.5 1046.5 772.2 1039.2 772.2Z" fill="#F2EFF8"/>
<path d="M1161.2 772.2H1120.4C1115 772.2 1110.3 768.4 1109.2 763.1L1100.6 721.8C1099.1 714.7 1104.5 708 1111.8 708H1152.6C1158 708 1162.7 711.8 1163.8 717.1L1172.4 758.4C1173.9 765.5 1168.4 772.2 1161.2 772.2Z" fill="#F2EFF8"/>
<path d="M1283.1 772.2H1242.3C1236.9 772.2 1232.2 768.4 1231.1 763.1L1222.5 721.8C1221 714.7 1226.5 708 1233.7 708H1274.5C1279.9 708 1284.6 711.8 1285.7 717.1L1294.3 758.4C1295.8 765.5 1290.4 772.2 1283.1 772.2Z" fill="#F2EFF8"/>
<path d="M1405 772.2H1364.3C1358.8 772.2 1354.2 768.4 1353.1 763.1L1344.4 721.8C1342.9 714.7 1348.4 708 1355.7 708H1396.4C1401.9 708 1406.5 711.8 1407.7 717.1L1416.3 758.4C1417.8 765.5 1412.3 772.2 1405 772.2Z" fill="#F2EFF8"/>
<path d="M1014.4 661.8H973.7C968.2 661.8 963.6 658 962.4 652.7L953.8 611.5C952.3 604.3 957.8 597.6 965.1 597.6H1005.8C1011.2 597.6 1015.9 601.5 1017 606.8L1025.7 648C1027.1 655.2 1021.7 661.8 1014.4 661.8Z" fill="#F2EFF8"/>
<path d="M1136.4 661.8H1095.6C1090.2 661.8 1085.5 658 1084.4 652.7L1075.8 611.5C1074.3 604.3 1079.7 597.6 1087 597.6H1127.7C1133.2 597.6 1137.9 601.5 1139 606.8L1147.6 648C1149.1 655.2 1143.6 661.8 1136.4 661.8Z" fill="#F2EFF8"/>
<path d="M1258.3 661.8H1217.5C1212.1 661.8 1207.4 658 1206.3 652.7L1197.7 611.5C1196.2 604.3 1201.6 597.6 1208.9 597.6H1249.7C1255.1 597.6 1259.8 601.5 1260.9 606.8L1269.5 648C1271 655.2 1265.6 661.8 1258.3 661.8Z" fill="#F2EFF8"/>
<path d="M1380.2 661.8H1339.5C1334 661.8 1329.4 658 1328.2 652.7L1319.6 611.5C1318.1 604.3 1323.6 597.6 1330.9 597.6H1371.6C1377.1 597.6 1381.7 601.5 1382.8 606.8L1391.5 648C1393 655.2 1387.5 661.8 1380.2 661.8Z" fill="#F2EFF8"/>
<path d="M697.8 882.6H657.1C651.6 882.6 646.9 878.8 645.8 873.5L637.2 832.2C635.7 825.1 641.2 818.4 648.4 818.4H689.2C694.6 818.4 699.3 822.2 700.4 827.5L709 868.8C710.5 875.9 705.1 882.6 697.8 882.6Z" fill="#F2EFF8"/>
<path d="M819.7 882.6H779C773.6 882.6 768.9 878.8 767.8 873.5L759.1 832.2C757.7 825.1 763.1 818.4 770.4 818.4H811.1C816.6 818.4 821.3 822.2 822.4 827.5L831 868.8C832.5 875.9 827 882.6 819.7 882.6Z" fill="#F3B168"/>
<path d="M941.7 882.6H900.9C895.5 882.6 890.8 878.8 889.7 873.5L881.1 832.2C879.6 825.1 885 818.4 892.3 818.4H933.1C938.5 818.4 943.2 822.2 944.3 827.5L952.9 868.8C954.4 875.9 949 882.6 941.7 882.6Z" fill="#F2EFF8"/>
<path d="M1063.6 882.6H1022.9C1017.4 882.6 1012.7 878.8 1011.6 873.5L1003 832.2C1001.5 825.1 1007 818.4 1014.3 818.4H1055C1060.4 818.4 1065.1 822.2 1066.2 827.5L1074.9 868.8C1076.3 875.9 1070.9 882.6 1063.6 882.6Z" fill="#F2EFF8"/>
<path d="M1185.6 882.6H1144.8C1139.4 882.6 1134.7 878.8 1133.6 873.5L1125 832.2C1123.5 825.1 1128.9 818.4 1136.2 818.4H1176.9C1182.4 818.4 1187.1 822.2 1188.2 827.5L1196.8 868.8C1198.3 875.9 1192.8 882.6 1185.6 882.6Z" fill="#F2EFF8"/>
<path d="M1307.5 882.6H1266.7C1261.3 882.6 1256.6 878.8 1255.5 873.5L1246.9 832.2C1245.4 825.1 1250.8 818.4 1258.1 818.4H1298.9C1304.3 818.4 1309 822.2 1310.1 827.5L1318.7 868.8C1320.2 875.9 1314.8 882.6 1307.5 882.6Z" fill="#F2EFF8"/>
<path d="M722.2 992.9H681.4C676 992.9 671.3 989.1 670.2 983.8L661.6 942.6C660.1 935.4 665.6 928.7 672.8 928.7H713.6C719 928.7 723.7 932.6 724.8 937.9L733.4 979.1C734.9 986.3 729.5 992.9 722.2 992.9Z" fill="#F2EFF8"/>
<path d="M844.1 992.9H803.4C797.9 992.9 793.3 989.1 792.2 983.8L783.5 942.6C782 935.4 787.5 928.7 794.8 928.7H835.5C841 928.7 845.6 932.6 846.8 937.9L855.4 979.1C856.9 986.3 851.4 992.9 844.1 992.9Z" fill="#F2EFF8"/>
<path d="M966.1 992.9H925.3C919.9 992.9 915.2 989.1 914.1 983.8L905.5 942.6C904 935.4 909.4 928.7 916.7 928.7H957.5C962.9 928.7 967.6 932.6 968.7 937.9L977.3 979.1C978.8 986.3 973.4 992.9 966.1 992.9Z" fill="#F2EFF8"/>
<path d="M1088 992.9H1047.3C1041.8 992.9 1037.1 989.1 1036 983.8L1027.4 942.6C1025.9 935.4 1031.4 928.7 1038.6 928.7H1079.4C1084.8 928.7 1089.5 932.6 1090.6 937.9L1099.2 979.1C1100.7 986.3 1095.3 992.9 1088 992.9Z" fill="#F2EFF8"/>
<path d="M1209.9 992.9H1169.2C1163.8 992.9 1159.1 989.1 1158 983.8L1149.3 942.6C1147.9 935.4 1153.3 928.7 1160.6 928.7H1201.3C1206.8 928.7 1211.4 932.6 1212.6 937.9L1221.2 979.1C1222.7 986.3 1217.2 992.9 1209.9 992.9Z" fill="#F2EFF8"/>
<path d="M1331.9 992.9H1291.1C1285.7 992.9 1281 989.1 1279.9 983.8L1271.3 942.6C1269.8 935.4 1275.2 928.7 1282.5 928.7H1323.3C1328.7 928.7 1333.4 932.6 1334.5 937.9L1343.1 979.1C1344.6 986.3 1339.2 992.9 1331.9 992.9Z" fill="#F2EFF8"/>
<path d="M744.9 1098.3H704.2C698.7 1098.3 694 1094.5 692.9 1089.2L684.3 1047.9C682.8 1040.8 688.3 1034.1 695.5 1034.1H736.3C741.7 1034.1 746.4 1037.9 747.5 1043.2L756.1 1084.5C757.6 1091.6 752.2 1098.3 744.9 1098.3Z" fill="#F2EFF8"/>
<path d="M866.8 1098.3H826.1C820.7 1098.3 816 1094.5 814.9 1089.2L806.2 1047.9C804.8 1040.8 810.2 1034.1 817.5 1034.1H858.2C863.7 1034.1 868.4 1037.9 869.5 1043.2L878.1 1084.5C879.6 1091.6 874.1 1098.3 866.8 1098.3Z" fill="#F2EFF8"/>
<path d="M988.8 1098.3H948C942.6 1098.3 937.9 1094.5 936.8 1089.2L928.2 1047.9C926.7 1040.8 932.1 1034.1 939.4 1034.1H980.2C985.6 1034.1 990.3 1037.9 991.4 1043.2L1000 1084.5C1001.5 1091.6 996.1 1098.3 988.8 1098.3Z" fill="#F2EFF8"/>
<path d="M1110.7 1098.3H1070C1064.5 1098.3 1059.8 1094.5 1058.7 1089.2L1050.1 1047.9C1048.6 1040.8 1054.1 1034.1 1061.4 1034.1H1102.1C1107.5 1034.1 1112.2 1037.9 1113.3 1043.2L1122 1084.5C1123.4 1091.6 1118 1098.3 1110.7 1098.3Z" fill="#F2EFF8"/>
<path d="M1232.7 1098.3H1191.9C1186.5 1098.3 1181.8 1094.5 1180.7 1089.2L1172.1 1047.9C1170.6 1040.8 1176 1034.1 1183.3 1034.1H1224C1229.5 1034.1 1234.2 1037.9 1235.3 1043.2L1243.9 1084.5C1245.4 1091.6 1239.9 1098.3 1232.7 1098.3Z" fill="#F2EFF8"/>
<path d="M1354.6 1098.3H1313.8C1308.4 1098.3 1303.7 1094.5 1302.6 1089.2L1294 1047.9C1292.5 1040.8 1297.9 1034.1 1305.2 1034.1H1346C1351.4 1034.1 1356.1 1037.9 1357.2 1043.2L1365.8 1084.5C1367.3 1091.6 1361.9 1098.3 1354.6 1098.3Z" fill="#F2EFF8"/>
<path d="M1446.4 529.6H502.6L478.3 397.9C475 380 488.7 363.6 506.9 363.6H1381.5C1401.4 363.6 1418.4 377.8 1422 397.3L1446.4 529.6Z" fill="#F3B168"/>
<path d="M1338.9 360.8C1338.9 361.733 1338.9 362.667 1338.9 363.6C1337.7 417.9 1301.1 461.6 1256.3 461.6C1250 461.6 1245 456.5 1245 450.2C1245 443.9 1250 438.9 1256.3 438.9C1288.6 438.9 1315 405.3 1316.2 363.6C1316.2 362.667 1316.2 361.733 1316.2 360.8C1316.2 317.7 1289.3 282.7 1256.3 282.7C1223.3 282.7 1196.4 317.7 1196.4 360.8C1196.4 361.733 1196.3 362.667 1196.1 363.6H1174.1C1173.83 362.667 1173.7 361.733 1173.7 360.8C1173.7 305.2 1210.8 260 1256.3 260C1301.9 260 1338.9 305.2 1338.9 360.8Z" fill="#4E564C"/>
<path d="M689.2 451.3C689.2 440.2 680.2 431.1 669 431.1C657.9 431.1 648.9 440.2 648.9 451.3C648.9 462.5 657.9 471.5 669 471.5C680.2 471.5 689.2 462.5 689.2 451.3Z" fill="#646F62"/>
<path d="M1276.5 451.3C1276.5 440.2 1267.5 431.1 1256.3 431.1C1245.2 431.1 1236.1 440.2 1236.1 451.3C1236.1 462.5 1245.2 471.5 1256.3 471.5C1267.5 471.5 1276.5 462.5 1276.5 451.3Z" fill="#646F62"/>
<path d="M670.6 260C625.1 260 588 305.2 588 360.8C588 361.733 588.133 362.667 588.4 363.6H610.4C610.6 362.667 610.7 361.733 610.7 360.8C610.7 317.7 637.6 282.7 670.6 282.7C703.6 282.7 730.5 317.7 730.5 360.8C730.5 361.733 730.467 362.667 730.4 363.6C729.3 405.3 702.9 438.9 670.6 438.9C664.3 438.9 659.2 443.9 659.2 450.2C659.2 456.5 664.3 461.6 670.6 461.6C715.4 461.6 752 417.9 753.2 363.6C753.2 362.667 753.2 361.733 753.2 360.8C753.2 305.2 716.2 260 670.6 260Z" fill="#4E564C"/>
<path d="M989.4 451.3C989.4 440.2 980.4 431.1 969.3 431.1C958.1 431.1 949.1 440.2 949.1 451.3C949.1 462.5 958.1 471.5 969.3 471.5C980.4 471.5 989.4 462.5 989.4 451.3Z" fill="#646F62"/>
<path d="M970.8 260C925.3 260 888.2 305.2 888.2 360.8C888.2 361.733 888.333 362.667 888.6 363.6H910.6C910.8 362.667 910.9 361.733 910.9 360.8C910.9 317.7 937.8 282.7 970.8 282.7C1003.8 282.7 1030.7 317.7 1030.7 360.8C1030.7 361.733 1030.67 362.667 1030.6 363.6C1029.5 405.3 1003.1 438.9 970.8 438.9C964.5 438.9 959.5 443.9 959.5 450.2C959.5 456.5 964.5 461.6 970.8 461.6C1015.6 461.6 1052.2 417.9 1053.4 363.6C1053.4 362.667 1053.4 361.733 1053.4 360.8C1053.4 305.2 1016.4 260 970.8 260Z" fill="#4E564C"/>
<path d="M1339.7 363.6C1338.5 417.9 1301.9 461.6 1257.2 461.6C1250.9 461.6 1245.8 456.5 1245.8 450.2C1245.8 443.9 1250.9 438.9 1257.2 438.9C1289.5 438.9 1315.9 405.3 1317 363.6H1339.7Z" fill="#4E564C"/>
<path d="M1854.3 1181.5H1528.6C1528.6 1181.5 1548.4 1127.5 1566.5 1074.1L1567.5 1074L1678 1066.5L1814.7 1057.2H1814.8L1814.9 1058.2L1816.6 1070.4L1838 1133.6L1854.3 1181.5Z" fill="#646F62"/>
<path d="M1611.3 883.2L1574.1 944L1544.6 992.2C1544 993.133 1543.37 994.067 1542.7 995C1542.7 995 1542.67 995 1542.6 995C1525.2 1016.9 1503.6 1036.4 1474.4 1033.1L1467.3 1032.3C1464.2 1031.1 1461 1029 1457.8 1026.2C1454.5 1023.4 1451.3 1020 1448.1 1016.1C1432.4 996.8 1423.7 972.6 1422.9 947.7L1418.5 811L1458.3 806.4L1489.7 935.1L1515.7 883.3L1535 845.1C1557.8 793.4 1596.7 816.1 1596.7 816.1C1643.5 832.7 1611.3 883.2 1611.3 883.2Z" fill="#FC8763"/>
<path d="M1611.3 883.2L1581 932.8C1556.8 907.4 1520.3 874.3 1520.3 874.3L1535 845.1C1557.8 793.4 1596.7 816.1 1596.7 816.1C1643.5 832.7 1611.3 883.2 1611.3 883.2Z" fill="#E5755E"/>
<path d="M1647 826.3C1645.8 831.3 1644.2 836.8 1642.3 842.6C1634.7 865.8 1623.1 892.7 1617.2 904.5C1614.2 910.3 1607.4 913 1601.3 910.9C1585.2 905.2 1571.5 896.7 1558.3 887.8C1548.5 881.1 1538.9 874.3 1528.8 868.1C1522.5 864.3 1518.2 857.9 1521.5 851.2C1566.5 761.2 1617.2 745 1617.2 745L1629.2 769.2C1648.3 786.7 1652.7 803.7 1647 826.3Z" fill="#6E55BD"/>
<path d="M1642.3 842.6C1634.7 865.8 1623.1 892.7 1617.2 904.5C1614.2 910.3 1607.4 913 1601.3 910.9C1585.2 905.2 1571.5 896.7 1558.3 887.8C1558.3 887.8 1545.7 855.1 1582 816.4C1582 816.4 1617.1 831.1 1642.3 842.6Z" fill="#5C4BA3"/>
<path d="M1707.4 1072C1708.8 1072.4 1833.3 1119.4 1833.3 1119.4L1819.6 1078.6L1707.4 1072Z" fill="#E28914"/>
<path d="M1798.2 928.7C1795.6 940.9 1794.5 953.4 1795.1 965.8C1795.17 967.4 1795.23 968.967 1795.3 970.5L1798.7 985.7L1812.2 1046.2L1814.7 1057.2L1814.9 1058.2L1817.6 1070.4H1816.6L1681.3 1072.4L1567.5 1074.1V1074L1591.3 945.5C1593.6 933.2 1590 920.6 1581.8 911.4C1581.4 910.933 1581 910.5 1580.6 910.1C1564.6 891.2 1561.1 864.6 1570.9 841.8L1604 765.3C1609.1 752.6 1612.8 747.4 1622.7 742.6L1674.9 721.2L1750 718.1L1829.4 749.2C1845.5 756.9 1853.3 775.4 1847.6 792.2C1840.3 813.7 1825.4 841.6 1812.6 877.9C1807.2 893.3 1802.1 910.2 1798.2 928.7Z" fill="#6E55BD"/>
<path d="M1900.1 1088.2C1895.7 1093 1890.7 1096.9 1885.3 1099.6C1879.9 1102.4 1874.1 1104 1868.1 1104.6C1839.9 1106.9 1820.4 1094.4 1720.1 1075.1L1729.6 1036.8L1833.4 1033.5C1840.4 1033.1 1844.8 1027.2 1843.2 1021.2L1820.2 950.1L1807.9 912.2L1807.2 895.1C1803.9 877.4 1809.4 859.3 1821.3 848.2L1846.3 824.9C1856.2 815.7 1870.9 820.2 1876 834L1889.3 869.9C1889.3 869.9 1892.6 883.3 1896.9 904C1904 938 1913.8 991.9 1916.5 1039.4C1917.5 1057.9 1911.5 1075.8 1900.1 1088.2Z" fill="#FC8763"/>
<path d="M1797.9 929.5C1795.3 941.7 1794.3 954.2 1794.8 966.6C1787.8 927.3 1777.9 878.7 1781.9 844L1812.3 878.7C1806.9 894.1 1801.8 911 1797.9 929.5Z" fill="#5C4BA3"/>
<path d="M1453.8 788.2C1454.2 786.1 1454.8 784.3 1455.7 782.3C1457.6 778 1456.3 773.5 1454.5 769.4C1453.7 767.5 1452.5 765.7 1451.8 763.8C1450.9 761.8 1451.1 759 1451.1 756.9C1451.1 747.2 1453.6 737.6 1457.7 728.9C1457.9 728.5 1458.13 728.067 1458.4 727.6C1460.1 724.2 1460.6 719.4 1457 716.7C1455.2 715.3 1452.6 715.2 1450.5 716.3C1445.3 718.9 1441.7 722.2 1440.6 727.9C1440.2 730.1 1439.9 732.4 1439.4 734.6C1438.8 737.3 1437 744.9 1432.8 742.9C1430.6 741.9 1427.2 738.2 1426.1 736.1C1417.7 719.5 1413.7 711 1402.7 692.8C1400.7 689.5 1399.1 685.8 1395.4 684.6C1392.9 683.8 1388.1 684.5 1387.1 687.5C1386.2 689.9 1389.5 694.6 1390.5 696.8C1394.3 705.4 1398.5 713.8 1402.2 722.4C1406.4 732.2 1410.7 740.9 1402.5 749.5L1390.3 769C1388.2 772.6 1387.8 777 1389.2 780.9C1391.5 787.3 1395.7 791.2 1400.4 798C1406.5 807 1417.5 807.9 1418.7 819L1419 819.7C1420.7 823.3 1424.6 825.4 1428.5 824.9C1434.8 824 1442.9 822.6 1444.1 822.1C1449.3 820.1 1459.7 817.8 1459.7 811.9C1459.7 808.6 1452.8 793.5 1453.8 788.2Z" fill="#FC8763"/>
<path d="M1818.8 721.8L1635.2 720.8C1622.2 719.4 1612.3 707.5 1629.3 682.8L1663.4 631.3C1672 618.5 1674.5 604.5 1662.2 596.2L1653.3 590.3C1648.1 586.9 1643.5 582.8 1639.5 578.2C1620.9 557 1614.4 525 1625.4 496.9C1625.8 495.967 1626.2 495.033 1626.6 494.1C1629.6 487.3 1633.8 481.1 1639.5 476.9C1656.5 464.4 1673.5 475.8 1686.1 488.5C1689.5 492 1692.8 495.6 1696.7 498.3C1714.4 510.7 1739.4 501.5 1757.2 513.6C1768.2 521 1774.1 534.8 1778.7 548.2C1783.2 561.6 1787.3 575.7 1796.4 585.9C1802.7 593 1810.9 597.5 1818.1 603.5C1827.2 611.2 1834.7 621.3 1840 632.7C1845.3 644.1 1848.5 656.5 1850.2 669.3C1853.1 690.8 1851.8 721.8 1818.8 721.8Z" fill="#160B09"/>
<path d="M1895 894.7C1862 920.6 1819.2 939.6 1817.2 941L1807.9 912.2L1807.2 895.1C1803.9 877.4 1809.4 859.3 1821.3 848.2L1846.3 824.9C1856.2 815.7 1870.9 820.2 1876 834L1889.3 869.9C1889.3 869.9 1890.7 874 1895 894.7Z" fill="#E5755E"/>
<path d="M1751.5 622L1751.1 631.9L1750.4 652.9L1748.1 717.7C1748.1 717.7 1743.7 741 1689.2 767C1685.1 768.9 1674.2 772.6 1669.9 771.4C1661.2 769.1 1659.8 749.2 1675.2 715.7L1679 699.6L1686.2 670L1744.2 627.3L1751.5 622Z" fill="#FC8763"/>
<path d="M1837.3 755.3C1837.3 755.3 1869.5 780.5 1898.5 869.7C1900.8 876.7 1897.3 884.4 1890.4 887.2L1818.1 922.3C1811.1 925.2 1805.6 922.1 1802.4 915.3C1796 901.7 1783 860 1778.9 829.6C1770.1 765.1 1790.7 742.5 1828.3 749.2L1837.3 755.3Z" fill="#6E55BD"/>
<path d="M1760.9 638.4C1757.6 643.7 1753.9 644.8 1750.5 649.5C1728.5 680.1 1696.1 694.2 1679 699.6L1686.2 670L1744.2 627.3L1751.1 631.9L1760.9 638.4Z" fill="#E5755E"/>
<path d="M1682.6 678C1707.2 676.8 1740.1 658.5 1757.7 640.9C1772.4 626.2 1779.2 603.3 1776.4 575.3C1774.8 558.5 1771.2 541.1 1760.2 528.3C1752.4 519.1 1741.2 513 1729.5 510.5C1717.7 507.9 1705.3 508.8 1693.7 512C1684.3 514.5 1675.2 518.7 1668.6 525.9C1660.5 534.5 1657.2 546.4 1654.4 557.9C1650.3 574.5 1646.7 591.3 1645.7 608.4C1644.7 625.4 1646.3 642.8 1652.3 658.8C1654.4 664.5 1657.3 670.2 1662.2 673.8C1668 677.9 1675.5 678.4 1682.6 678Z" fill="#FC8763"/>
<path d="M1817 693.2H1766.1C1745.4 693.2 1745 655.9 1746.3 636.7C1746.7 630.2 1749.2 624.1 1753.5 619.5C1770 601.7 1757.5 594.4 1757.5 594.4C1746.3 589.4 1737.9 605 1737.9 605C1726.5 602.6 1726.5 580.7 1727.5 568.2C1727.8 564.8 1726.2 561.6 1723.5 559.8C1722.4 559.1 1721.2 558.6 1719.9 558.4C1684.9 552.6 1673.1 530.4 1673.1 530.4C1672.7 530.733 1672.3 531.067 1671.9 531.4C1651.8 548.7 1648.3 584.8 1648.3 584.8C1629.2 563.3 1623.2 521.2 1633.7 495.1C1634.03 494.233 1634.4 493.367 1634.8 492.5C1637.6 486.1 1641.7 480.4 1647.1 476.5C1648.37 475.567 1649.67 474.767 1651 474.1C1665.7 466.7 1680.2 476.5 1691.2 487.3C1694.4 490.5 1697.6 493.9 1701.3 496.4C1718.1 507.9 1741.7 499.4 1758.7 510.6C1769.1 517.5 1774.7 530.3 1779 542.7C1783.3 555.2 1787.2 568.3 1795.8 577.7C1801.8 584.3 1809.6 588.5 1816.4 594.1C1825.1 601.2 1832.1 610.7 1837.1 621.2C1842.2 631.8 1845.2 643.3 1846.8 655.2C1849.6 675.2 1835.5 693.2 1817 693.2Z" fill="#160B09"/>
<path d="M1821.7 721.8L1744.2 721.6C1712.8 721.1 1741.4 658.5 1746.3 636.7C1747.7 630.3 1749.2 624.1 1753.5 619.5C1770 601.7 1757.5 594.4 1757.5 594.4C1746.3 589.4 1737.9 605 1737.9 605C1726.5 602.6 1726.5 580.7 1727.5 568.2C1727.8 564.8 1726.2 561.6 1723.5 559.8C1699.3 555.7 1682.9 544.9 1671.9 531.4C1658 514.2 1652.7 492.6 1651 474.1C1665.7 466.7 1680.2 476.5 1691.2 487.3C1694.4 490.5 1697.6 493.9 1701.3 496.4C1718.1 507.9 1741.7 499.4 1758.7 510.6C1769.1 517.5 1774.7 530.3 1779 542.7C1783.3 555.2 1787.2 568.3 1795.8 577.7C1801.8 584.3 1809.6 588.5 1816.4 594.1C1825.1 601.2 1832.1 610.7 1837.1 621.2C1842.2 631.8 1845.2 642.7 1848.4 654.3C1854.2 675.4 1859.3 719 1821.7 721.8Z" fill="#4C241E"/>
<path d="M1657.6 1042.2C1659.6 1041.1 1661.6 1039.8 1663.9 1039.9C1663.8 1041.1 1662.7 1041.8 1661.6 1042.4C1657.8 1044.6 1654 1046.8 1650 1048.6C1649.1 1049 1648.1 1049.4 1647.3 1050.1C1646.6 1050.8 1646.1 1051.9 1646.3 1052.9C1646.9 1055.2 1651.3 1054.8 1652.9 1054.6C1658.4 1053.7 1663.8 1052.8 1669.2 1051.7C1676.1 1050.2 1683.8 1049.8 1688.9 1054.8C1691.7 1057.5 1693.3 1061.3 1695.7 1064.5C1699.7 1070 1702.5 1070.9 1712.3 1073.3C1720.4 1075.2 1725.2 1076.4 1732.5 1077C1736.2 1068.8 1737.8 1036.5 1737.8 1036.5C1728.6 1036.2 1716.1 1034.8 1707.5 1029.2C1704.6 1027.2 1702.3 1024.4 1699.7 1021.8C1693.4 1015.5 1685.3 1011.2 1676.6 1009.2C1672.3 1008.2 1667.9 1007.8 1663.5 1007.9C1659 1008 1657.1 1009.3 1653.5 1011.6C1652.3 1012.3 1651 1012.7 1649.7 1013.1C1640.3 1016.3 1631.6 1021.2 1623.3 1026.4C1616.4 1030.7 1608.7 1034 1603.8 1040.9C1601.6 1043.9 1602.8 1046.8 1606.5 1047.5C1611.1 1048.3 1615.4 1045.9 1619 1043.5C1624.3 1040.1 1629.1 1037.4 1634.9 1034.9C1637.6 1033.7 1641.3 1032 1644.3 1032.7C1642.5 1034.8 1639.9 1035.9 1637.3 1036.9C1632 1039.2 1625.5 1041.6 1621 1045.1C1617.1 1048.2 1617.9 1051.7 1622.8 1052.9C1626.2 1053.7 1629.9 1052.7 1633.1 1051.5C1641 1048.5 1650.2 1046.3 1657.6 1042.2Z" fill="#FC8763"/>
<path d="M1687.1 1166.4H1563.7C1560.9 1166.4 1558.5 1164.5 1558 1161.7L1521 981.4C1519.9 975.1 1514.3 970.4 1507.9 970.4H1265.2C1256.9 970.4 1250.6 978 1252.1 986.2L1290 1171.3C1291.1 1177.7 1296.7 1182.3 1303.1 1182.3H1545.8H1687.4C1692 1182.3 1695.6 1178.5 1695.3 1173.9C1695.1 1169.6 1691.4 1166.4 1687.1 1166.4Z" fill="#7D798C"/>
<path d="M1406.5 1078.4C1405 1071.9 1399.5 1067.6 1394.1 1068.8C1388.8 1070 1385.7 1076.3 1387.1 1082.8C1388.6 1089.3 1394.2 1093.6 1399.5 1092.4C1404.8 1091.2 1408 1084.9 1406.5 1078.4Z" fill="#D2C6F1"/>
</svg>
