<svg width="2068" height="2012" viewBox="0 0 2068 2012" fill="none" xmlns="http://www.w3.org/2000/svg">
<path d="M372.621 808.566C375.392 805.925 378.239 803.256 381.161 800.559C381.161 800.559 501.115 674.594 751.922 750.613C824.728 772.657 903.195 745.232 946.44 681.914C1051.64 528.113 1264.48 293.669 1524.59 420.43C1524.59 420.43 1830.33 538.13 1791.59 871.752C1785.37 925.141 1797.83 978.841 1826.4 1024.13C1826.94 1025.09 1827.5 1026.01 1828.1 1026.91C1894.33 1134.04 1824.6 1276.89 1704.95 1280.4L563.387 1313.64C311.923 1320.91 186.004 988.357 372.621 808.566Z" fill="#FAFAFC"/>
<g opacity="0.28">
<path opacity="0.02" d="M122.884 1858.33C122.884 1907.1 541.399 1946.85 1057.47 1946.85C1573.53 1946.85 1991.75 1907.1 1991.75 1858.33C1991.75 1809.25 1573.53 1769.51 1057.47 1769.51C541.399 1769.51 122.884 1809.25 122.884 1858.33Z" fill="#F9F9F9"/>
<path opacity="0.05" d="M137.336 1858.33C137.336 1906.5 549.227 1945.94 1057.47 1945.94C1565.4 1945.94 1977.3 1906.5 1977.3 1858.33C1977.3 1809.86 1565.4 1770.42 1057.47 1770.42C549.227 1770.42 137.336 1809.86 137.336 1858.33Z" fill="#F3F3F3"/>
<path opacity="0.07" d="M152.09 1858.33C152.09 1905.9 557.356 1944.74 1057.47 1944.74C1557.58 1944.74 1962.84 1905.9 1962.84 1858.33C1962.84 1810.46 1557.58 1771.62 1057.47 1771.62C557.356 1771.62 152.09 1810.46 152.09 1858.33Z" fill="#ECECEC"/>
<path opacity="0.1" d="M166.542 1858.33C166.542 1905.3 565.486 1943.84 1057.47 1943.84C1549.45 1943.84 1948.39 1905.3 1948.39 1858.33C1948.39 1811.06 1549.45 1772.82 1057.47 1772.82C565.486 1772.82 166.542 1811.06 166.542 1858.33Z" fill="#E6E6E6"/>
<path opacity="0.12" d="M180.994 1858.33C180.994 1904.7 573.314 1942.63 1057.47 1942.63C1541.32 1942.63 1933.94 1904.7 1933.94 1858.33C1933.94 1811.66 1541.32 1773.73 1057.47 1773.73C573.314 1773.73 180.994 1811.66 180.994 1858.33Z" fill="#E0E0E0"/>
<path opacity="0.15" d="M195.447 1858.33C195.447 1904.09 581.444 1941.43 1057.47 1941.43C1533.49 1941.43 1919.19 1904.09 1919.19 1858.33C1919.19 1812.27 1533.49 1774.93 1057.47 1774.93C581.444 1774.93 195.447 1812.27 195.447 1858.33Z" fill="#DADADA"/>
<path opacity="0.17" d="M209.899 1858.33C209.899 1903.49 589.272 1940.52 1057.47 1940.52C1525.36 1940.52 1904.73 1903.49 1904.73 1858.33C1904.73 1812.87 1525.36 1775.84 1057.47 1775.84C589.272 1775.84 209.899 1812.87 209.899 1858.33Z" fill="#D3D3D3"/>
<path opacity="0.2" d="M224.652 1858.33C224.652 1902.89 597.401 1939.32 1057.47 1939.32C1517.53 1939.32 1890.28 1902.89 1890.28 1858.33C1890.28 1813.47 1517.53 1777.04 1057.47 1777.04C597.401 1777.04 224.652 1813.47 224.652 1858.33Z" fill="#CDCDCD"/>
<path opacity="0.22" d="M239.105 1858.33C239.105 1902.29 605.531 1938.42 1057.47 1938.42C1509.4 1938.42 1875.83 1902.29 1875.83 1858.33C1875.83 1814.07 1509.4 1777.94 1057.47 1777.94C605.531 1777.94 239.105 1814.07 239.105 1858.33Z" fill="#C7C7C7"/>
<path opacity="0.24" d="M253.557 1858.33C253.557 1901.69 613.359 1937.21 1057.47 1937.21C1501.27 1937.21 1861.38 1901.69 1861.38 1858.33C1861.38 1814.67 1501.27 1779.15 1057.47 1779.15C613.359 1779.15 253.557 1814.67 253.557 1858.33Z" fill="#C1C1C1"/>
<path opacity="0.27" d="M268.01 1858.33C268.01 1901.38 621.489 1936.01 1057.47 1936.01C1493.44 1936.01 1846.62 1901.38 1846.62 1858.33C1846.62 1815.28 1493.44 1780.35 1057.47 1780.35C621.489 1780.35 268.01 1815.28 268.01 1858.33Z" fill="#BBBBBB"/>
<path opacity="0.29" d="M282.462 1858.33C282.462 1900.78 629.618 1935.1 1057.47 1935.1C1485.32 1935.1 1832.17 1900.78 1832.17 1858.33C1832.17 1815.88 1485.32 1781.25 1057.47 1781.25C629.618 1781.25 282.462 1815.88 282.462 1858.33Z" fill="#B4B4B4"/>
<path opacity="0.32" d="M297.215 1858.33C297.215 1900.18 637.446 1933.9 1057.47 1933.9C1477.19 1933.9 1817.72 1900.18 1817.72 1858.33C1817.72 1816.48 1477.19 1782.46 1057.47 1782.46C637.446 1782.46 297.215 1816.48 297.215 1858.33Z" fill="#AEAEAE"/>
<path opacity="0.34" d="M311.667 1858.33C311.667 1899.58 645.576 1933 1057.47 1933C1469.36 1933 1803.27 1899.58 1803.27 1858.33C1803.27 1817.08 1469.36 1783.36 1057.47 1783.36C645.576 1783.36 311.667 1817.08 311.667 1858.33Z" fill="#A8A8A8"/>
<path opacity="0.36" d="M326.12 1858.33C326.12 1898.98 653.404 1931.79 1057.47 1931.79C1461.23 1931.79 1788.81 1898.98 1788.81 1858.33C1788.81 1817.68 1461.23 1784.57 1057.47 1784.57C653.404 1784.57 326.12 1817.68 326.12 1858.33Z" fill="#A2A2A2"/>
<path opacity="0.39" d="M340.572 1858.33C340.572 1898.37 661.534 1930.59 1057.47 1930.59C1453.4 1930.59 1774.06 1898.37 1774.06 1858.33C1774.06 1817.99 1453.4 1785.77 1057.47 1785.77C661.534 1785.77 340.572 1817.99 340.572 1858.33Z" fill="#9B9B9B"/>
<path opacity="0.42" d="M355.024 1858.33C355.024 1897.77 669.663 1929.69 1057.47 1929.69C1445.27 1929.69 1759.61 1897.77 1759.61 1858.33C1759.61 1818.59 1445.27 1786.67 1057.47 1786.67C669.663 1786.67 355.024 1818.59 355.024 1858.33Z" fill="#959595"/>
<path opacity="0.44" d="M369.778 1858.33C369.778 1897.17 677.491 1928.48 1057.47 1928.48C1437.14 1928.48 1745.16 1897.17 1745.16 1858.33C1745.16 1819.19 1437.14 1787.88 1057.47 1787.88C677.491 1787.88 369.778 1819.19 369.778 1858.33Z" fill="#8F8F8F"/>
<path opacity="0.46" d="M384.23 1858.33C384.23 1896.57 685.621 1927.58 1057.47 1927.58C1429.31 1927.58 1730.7 1896.57 1730.7 1858.33C1730.7 1819.79 1429.31 1788.78 1057.47 1788.78C685.621 1788.78 384.23 1819.79 384.23 1858.33Z" fill="#898989"/>
<path opacity="0.49" d="M398.682 1858.33C398.682 1895.96 693.75 1926.37 1057.47 1926.37C1421.18 1926.37 1716.25 1895.96 1716.25 1858.33C1716.25 1820.39 1421.18 1789.99 1057.47 1789.99C693.75 1789.99 398.682 1820.39 398.682 1858.33Z" fill="#838383"/>
<path opacity="0.51" d="M413.135 1858.33C413.135 1895.36 701.579 1925.17 1057.47 1925.17C1413.05 1925.17 1701.5 1895.36 1701.5 1858.33C1701.5 1821 1413.05 1791.19 1057.47 1791.19C701.579 1791.19 413.135 1821 413.135 1858.33Z" fill="#7C7C7C"/>
<path opacity="0.54" d="M427.587 1858.33C427.587 1894.76 709.708 1924.27 1057.47 1924.27C1405.23 1924.27 1687.05 1894.76 1687.05 1858.33C1687.05 1821.6 1405.23 1792.09 1057.47 1792.09C709.708 1792.09 427.587 1821.6 427.587 1858.33Z" fill="#767676"/>
<path opacity="0.56" d="M442.341 1858.33C442.341 1894.16 717.536 1923.06 1057.47 1923.06C1397.1 1923.06 1672.59 1894.16 1672.59 1858.33C1672.59 1822.2 1397.1 1793.3 1057.47 1793.3C717.536 1793.3 442.341 1822.2 442.341 1858.33Z" fill="#707070"/>
<path opacity="0.58" d="M456.793 1858.33C456.793 1893.56 725.666 1922.16 1057.47 1922.16C1389.27 1922.16 1658.14 1893.56 1658.14 1858.33C1658.14 1822.8 1389.27 1794.2 1057.47 1794.2C725.666 1794.2 456.793 1822.8 456.793 1858.33Z" fill="#6A6A6A"/>
<path opacity="0.61" d="M471.245 1858.33C471.245 1892.95 733.795 1920.95 1057.47 1920.95C1381.14 1920.95 1643.39 1892.95 1643.39 1858.33C1643.39 1823.41 1381.14 1795.41 1057.47 1795.41C733.795 1795.41 471.245 1823.41 471.245 1858.33Z" fill="#646464"/>
<path opacity="0.64" d="M485.697 1858.33C485.697 1892.35 741.623 1920.05 1057.47 1920.05C1373.01 1920.05 1628.94 1892.35 1628.94 1858.33C1628.94 1824.01 1373.01 1796.61 1057.47 1796.61C741.623 1796.61 485.697 1824.01 485.697 1858.33Z" fill="#5D5D5D"/>
<path opacity="0.66" d="M500.451 1858.33C500.451 1891.75 749.753 1918.85 1057.47 1918.85C1365.18 1918.85 1614.48 1891.75 1614.48 1858.33C1614.48 1824.61 1365.18 1797.51 1057.47 1797.51C749.753 1797.51 500.451 1824.61 500.451 1858.33Z" fill="#575757"/>
<path opacity="0.68" d="M514.903 1858.33C514.903 1891.15 757.882 1917.64 1057.47 1917.64C1357.05 1917.64 1600.03 1891.15 1600.03 1858.33C1600.03 1825.21 1357.05 1798.72 1057.47 1798.72C757.882 1798.72 514.903 1825.21 514.903 1858.33Z" fill="#515151"/>
<path opacity="0.71" d="M529.355 1858.33C529.355 1890.55 765.711 1916.74 1057.47 1916.74C1348.92 1916.74 1585.58 1890.55 1585.58 1858.33C1585.58 1825.81 1348.92 1799.62 1057.47 1799.62C765.711 1799.62 529.355 1825.81 529.355 1858.33Z" fill="#4B4B4B"/>
<path opacity="0.73" d="M543.808 1858.33C543.808 1889.94 773.84 1915.53 1057.47 1915.53C1341.09 1915.53 1570.82 1889.94 1570.82 1858.33C1570.82 1826.42 1341.09 1800.82 1057.47 1800.82C773.84 1800.82 543.808 1826.42 543.808 1858.33Z" fill="#444444"/>
<path opacity="0.76" d="M558.26 1858.33C558.26 1889.34 781.668 1914.63 1057.47 1914.63C1332.96 1914.63 1556.37 1889.34 1556.37 1858.33C1556.37 1827.02 1332.96 1802.03 1057.47 1802.03C781.668 1802.03 558.26 1827.02 558.26 1858.33Z" fill="#3E3E3E"/>
<path opacity="0.78" d="M573.013 1858.33C573.013 1888.74 789.798 1913.43 1057.47 1913.43C1325.14 1913.43 1541.92 1888.74 1541.92 1858.33C1541.92 1827.62 1325.14 1802.93 1057.47 1802.93C789.798 1802.93 573.013 1827.62 573.013 1858.33Z" fill="#383838"/>
<path opacity="0.8" d="M587.466 1858.33C587.466 1888.14 797.927 1912.22 1057.47 1912.22C1317.01 1912.22 1527.47 1888.14 1527.47 1858.33C1527.47 1828.22 1317.01 1804.14 1057.47 1804.14C797.927 1804.14 587.466 1828.22 587.466 1858.33Z" fill="#323232"/>
<path opacity="0.83" d="M601.918 1858.33C601.918 1887.53 805.756 1911.32 1057.47 1911.32C1308.88 1911.32 1513.02 1887.53 1513.02 1858.33C1513.02 1828.82 1308.88 1805.04 1057.47 1805.04C805.756 1805.04 601.918 1828.82 601.918 1858.33Z" fill="#2C2C2C"/>
<path opacity="0.85" d="M616.37 1858.33C616.37 1886.93 813.885 1910.12 1057.47 1910.12C1301.05 1910.12 1498.26 1886.93 1498.26 1858.33C1498.26 1829.43 1301.05 1806.24 1057.47 1806.24C813.885 1806.24 616.37 1829.43 616.37 1858.33Z" fill="#252525"/>
<path opacity="0.88" d="M630.823 1858.33C630.823 1886.33 822.014 1909.21 1057.47 1909.21C1292.92 1909.21 1483.81 1886.33 1483.81 1858.33C1483.81 1830.03 1292.92 1807.45 1057.47 1807.45C822.014 1807.45 630.823 1830.03 630.823 1858.33Z" fill="#1F1F1F"/>
<path opacity="0.9" d="M645.576 1858.33C645.576 1885.73 829.843 1908.01 1057.47 1908.01C1284.79 1908.01 1469.36 1885.73 1469.36 1858.33C1469.36 1830.63 1284.79 1808.35 1057.47 1808.35C829.843 1808.35 645.576 1830.63 645.576 1858.33Z" fill="#191919"/>
<path opacity="0.93" d="M660.028 1858.33C660.028 1885.13 837.972 1906.8 1057.47 1906.8C1276.96 1906.8 1454.91 1885.13 1454.91 1858.33C1454.91 1831.23 1276.96 1809.56 1057.47 1809.56C837.972 1809.56 660.028 1831.23 660.028 1858.33Z" fill="#131313"/>
<path opacity="0.95" d="M674.481 1858.33C674.481 1884.52 845.801 1905.9 1057.47 1905.9C1268.83 1905.9 1440.45 1884.52 1440.45 1858.33C1440.45 1831.84 1268.83 1810.46 1057.47 1810.46C845.801 1810.46 674.481 1831.84 674.481 1858.33Z" fill="#0C0C0C"/>
<path opacity="0.98" d="M688.933 1858.33C688.933 1883.92 853.93 1904.7 1057.47 1904.7C1261 1904.7 1425.7 1883.92 1425.7 1858.33C1425.7 1832.44 1261 1811.66 1057.47 1811.66C853.93 1811.66 688.933 1832.44 688.933 1858.33Z" fill="#060606"/>
<path d="M703.385 1858.33C703.385 1883.32 862.059 1903.79 1057.47 1903.79C1252.87 1903.79 1411.25 1883.32 1411.25 1858.33C1411.25 1833.04 1252.87 1812.57 1057.47 1812.57C862.059 1812.57 703.385 1833.04 703.385 1858.33Z" fill="black"/>
</g>
<path d="M652.2 1883.32L1172.18 1883.32C1188.14 1883.32 1204.1 1880.31 1218.85 1874.89L1323.93 1836.05L1337.48 1830.93C1413.96 1803.53 1337.48 1646.07 1337.48 1646.07L1353.44 1646.07C1353.44 1646.07 1430.52 1813.17 1353.44 1842.37L1339.59 1847.79L1235.11 1888.44C1219.15 1894.76 1202.59 1898.07 1185.43 1898.07L666.352 1890.85C657.018 1890.85 650.695 1886.93 646.781 1880.01C646.781 1880.01 646.781 1879.91 646.781 1879.71C647.684 1881.81 649.49 1883.32 652.2 1883.32Z" fill="url(#paint0_linear_1_2)"/>
<path d="M650.996 1871.58C743.43 1853.51 918.664 1831.53 953.29 1807.45C1014.71 1764.7 975.571 1646.07 975.571 1646.07L1337.48 1646.07C1337.48 1646.07 1413.96 1803.53 1337.48 1830.93L1323.93 1836.05L1220.06 1874.29C1204.4 1880.31 1187.84 1883.32 1170.98 1883.32L652.2 1883.32C649.49 1883.32 647.684 1881.81 646.78 1879.71C645.275 1876.7 646.479 1872.18 650.996 1871.58Z" fill="url(#paint1_linear_1_2)"/>
<path d="M63.2686 1577.12L75.3122 1458.5L1966.16 1403.1L1962.54 1582.24C1961.94 1605.73 1942.37 1624.69 1918.58 1624.69L106.927 1624.69C81.0329 1624.69 60.8599 1602.42 63.2686 1577.12Z" fill="url(#paint2_linear_1_2)"/>
<path d="M63.2686 1577.12L75.3122 1458.5L1966.16 1403.1L1962.54 1582.24C1961.94 1605.73 1942.37 1624.69 1918.58 1624.69L106.927 1624.69C81.0329 1624.69 60.8599 1602.42 63.2686 1577.12Z" fill="url(#paint3_linear_1_2)"/>
<path d="M179.79 424.602C181.898 405.634 196.35 389.978 215.319 386.365L1941.17 64.8152C1968.56 59.6969 1993.55 80.7722 1992.95 108.17L1966.16 1403.1L75.312 1458.5L179.79 424.602Z" fill="black"/>
<path d="M1902.93 1335.66L1927.92 139.181C1927.92 135.869 1924.91 133.16 1921.59 133.762L246.632 445.979C244.224 446.28 242.417 448.387 242.116 450.796L147.574 1385.94C147.273 1389.25 149.681 1391.96 152.993 1391.96L1897.81 1340.78C1900.52 1340.78 1902.93 1338.67 1902.93 1335.66Z" fill="white"/>
<path d="M152.993 1393.47C150.886 1393.47 149.079 1392.56 147.875 1391.36C146.369 1389.85 145.767 1387.75 146.068 1385.94L240.61 450.495C240.912 447.484 243.32 445.075 246.331 444.473L1921.29 132.256C1923.1 131.955 1925.21 132.557 1927.01 133.762C1928.52 135.267 1929.42 137.074 1929.42 139.181L1904.43 1335.66C1904.43 1339.27 1901.42 1342.28 1897.81 1342.28L152.993 1393.47ZM1922.5 135.267C1922.3 135.267 1922 135.267 1921.59 135.267L246.933 447.484C245.127 447.785 243.922 449.29 243.621 450.796L149.079 1386.24C148.778 1387.45 149.38 1388.35 149.982 1389.25C150.886 1390.16 151.789 1390.46 152.993 1390.46L1897.81 1339.27C1899.92 1339.27 1901.42 1337.77 1901.42 1335.66L1926.41 139.181C1926.41 137.977 1925.81 136.773 1924.91 136.17C1924.1 135.568 1923.3 135.267 1922.5 135.267Z" fill="#333333"/>
<path d="M62.3655 1587.36L62.9677 1579.83C63.1684 1579.83 63.2687 1579.93 63.2687 1580.14C62.3655 1604.22 81.9363 1624.69 106.927 1624.69L1917.08 1624.69C1940.86 1624.69 1960.43 1605.73 1960.74 1582.24L1991.45 108.17C1992.05 80.7722 1967.06 59.9979 1939.66 65.1163L1938.15 65.1163L1942.37 64.5141C1970.37 60.299 2007.1 82.5787 2006.5 110.278L1975.49 1603.02C1975.19 1627.1 1955.62 1646.07 1931.53 1646.07L107.228 1646.07C81.0329 1646.07 59.6557 1613.25 62.3655 1587.36Z" fill="url(#paint4_linear_1_2)"/>
<path style="mix-blend-mode:screen" opacity="0.42" d="M1502.48 146.407L1941.17 64.8152C1968.56 59.6969 1993.56 80.7722 1992.95 108.17L1966.16 1403.1L976.173 1432.31L1502.48 146.407Z" fill="url(#paint5_linear_1_2)"/>
<path d="M1403.04 525.25L1521.45 521.396C1560.21 520.135 1592.65 550.456 1593.91 589.215C1595.17 627.974 1564.78 660.416 1526.02 661.677L1445.29 664.304L1386.45 709.227L1393.18 664.545C1361.09 658.932 1336.24 631.501 1335.14 597.635C1333.88 558.877 1364.28 526.511 1403.04 525.25Z" fill="#D2C6F1"/>
<path d="M1540.59 575.568L1391.74 580.411C1390.98 580.436 1390.26 579.465 1390.22 578.242C1390.18 577.018 1390.84 576.002 1391.6 575.977L1540.44 571.134C1541.28 571.107 1542 572.078 1542.04 573.301C1542.08 574.524 1541.43 575.541 1540.59 575.568Z" fill="white"/>
<path d="M1452.74 608.808L1392.73 610.761C1391.97 610.786 1391.25 609.814 1391.21 608.591C1391.17 607.368 1391.82 606.352 1392.59 606.327L1452.6 604.374C1453.36 604.349 1454.08 605.321 1454.12 606.544C1454.16 607.767 1453.51 608.783 1452.74 608.808Z" fill="white"/>
<path d="M486.779 1304.12L452.012 1310.46L448.739 1311.02L447.218 1311.3L445.087 1311.68C443.82 1311.92 442.55 1312.09 441.278 1312.18C432.272 1312.94 423.307 1310.24 416.319 1304.81C383.264 1279.1 330.724 1277.82 309.417 1241.55C301.562 1228.26 299.293 1203.24 289.189 1191.4C276.221 1176.21 252.581 1169.4 244.651 1151.44C237.951 1136.05 245.073 1117.38 237.391 1102.4C233.715 1095.25 226.959 1089.88 222.153 1083.3C217.348 1076.72 214.598 1067.48 219.511 1060.89C226.403 1051.63 242.039 1054.72 251.816 1061.21C261.515 1067.63 270.538 1076.83 282.496 1077.44C298.134 1078.23 312.812 1063.67 327.726 1068.08C348.124 1074.08 344.541 1107.4 364.518 1114.56C371.564 1117.09 379.47 1115.45 386.996 1116.28C403.278 1118.04 415.575 1131.42 421.246 1145.78C426.993 1160.13 427.656 1175.79 430.898 1190.77C434.066 1205.81 440.539 1221.29 454.058 1229.88C459.216 1233.16 465.174 1235.18 469.964 1238.93C487.312 1252.29 478.793 1275.07 483.501 1295.12C483.737 1296.08 484.024 1297.07 484.363 1298.08C484.99 1300.1 485.795 1302.11 486.779 1304.12Z" fill="#DDD6F2"/>
<path d="M452.012 1310.46L448.739 1311.02C419.982 1257.47 375.397 1190.2 310.163 1130.41C309.768 1130.04 309.975 1129.34 310.65 1128.94C311.326 1128.54 312.243 1128.51 312.715 1128.87C380.554 1191.1 425.608 1261.04 452.012 1310.46Z" fill="white"/>
<path d="M521.714 1194.77C528.326 1212.16 521.848 1231.81 513.167 1247.24C504.71 1262.52 500.691 1282.47 488.959 1295.86C484.531 1300.9 479.245 1305.44 473.061 1308.24C470.571 1309.32 468.556 1310.91 466.068 1312.07C463.425 1313.15 460.451 1313.47 457.554 1313.8C456.842 1313.87 456.129 1313.92 455.416 1313.94C454.4 1314.08 453.356 1314.16 452.286 1314.2C449.842 1314.35 447.394 1314.36 445.009 1313.97C440.858 1313.42 436.673 1311.8 433.816 1308.68C431.036 1305.55 429.75 1301.31 429.231 1297.12C428.712 1292.92 428.879 1288.63 428.286 1284.52C426.571 1271.8 418.716 1260.88 410.136 1251.21C409.131 1250.12 408.153 1249.05 407.2 1248.01C404.662 1245.26 402.05 1242.59 399.59 1239.92C389.042 1228.55 381.823 1216.01 374.648 1202.47C367.157 1188.63 359.565 1174.03 358.813 1157.98C357.759 1137.36 371.905 1120.52 371.253 1100.49C370.578 1077.4 354.643 1060.39 343.476 1041.78C335.137 1027.74 331.866 1007.18 344.618 996.895C351.181 991.631 360.406 990.566 366.814 985.23C377.245 976.549 376.654 960.727 376.522 947.262C376.461 933.642 380.055 917.071 393.015 913.206C404.841 909.76 416.565 919.633 422.731 930.376C428.894 941.043 432.594 953.626 441.815 961.821C455.132 973.632 477.482 973.746 487.227 988.658C501.564 1010.61 476.442 1045.26 494.361 1064.42C500.466 1070.95 510.183 1073.24 516.367 1079.85C526.671 1090.76 523.344 1108.47 517.445 1122.36C511.621 1136.25 503.754 1150.82 507.213 1165.4C509.704 1176.11 517.859 1184.49 521.714 1194.77Z" fill="#ECE8F9"/>
<path d="M459.249 1238.9C459.354 1270.35 457.367 1296.28 455.416 1313.94C454.4 1314.08 453.357 1314.16 452.287 1314.2C457.949 1262.43 464.101 1138.72 416.45 1007.8C416.28 1007.27 416.723 1006.79 417.564 1006.77C418.403 1006.66 419.182 1007.1 419.429 1007.62C452.038 1097.25 459.11 1182.88 459.249 1238.9Z" fill="white"/>
<path d="M1639.08 1278.95L1593.9 1280.42C1632.61 1110.49 1762.97 1114.05 1787.07 1113.8C1790.21 1113.78 1791.9 1113.88 1791.9 1113.88C1774.65 1284.87 1639.08 1278.95 1639.08 1278.95Z" fill="#DDD6F2"/>
<path d="M1718.23 867.789C1717.97 866.879 1717.73 866.504 1717.73 866.504C1450.48 1019 1595.5 1280.06 1593.9 1280.42L1616.84 1279.67C1626.01 1279.37 1634.78 1275.95 1641.32 1270C1805.41 1119.87 1725.58 886.911 1718.23 867.789Z" fill="#ECE8F9"/>
<path d="M498.373 752.224C495.175 763.738 489.018 773.653 481.021 781.409C464.709 797.242 440.561 804.198 417.133 797.562C382.11 787.646 361.88 751.184 371.795 716.241C380.591 685.297 410.176 665.786 441.041 668.665C445.039 669.065 449.117 669.784 453.035 670.904C488.058 680.819 508.368 717.281 498.373 752.224Z" fill="#D2C6F1"/>
<path d="M483.58 689.775L435.124 734.233C435.124 734.233 438.482 696.571 441.041 668.665C445.039 669.065 449.117 669.785 453.035 670.904C465.269 674.342 475.664 681.059 483.58 689.775Z" fill="#F2EFF8"/>
<path d="M1138.64 1294.69L476.459 1316.24C455.666 1316.92 439.744 1298 443.904 1277.66L558.158 722.558C562.317 702.219 574.086 687.602 594.88 686.925L1257.68 665.358C1272.51 664.875 1283.89 678.356 1280.92 692.917L1160.99 1275.83C1158.81 1286.54 1149.5 1294.34 1138.64 1294.69Z" fill="#7B1CE0"/>
<path d="M1204.92 1292.54L528.902 1314.54C516.747 1314.93 506.931 1302.55 508.141 1290.34L562.447 715.607C564.072 699.713 577.144 687.502 593.122 686.982L1261.42 665.236C1274.8 664.801 1285.58 676.235 1284.18 689.673L1224.38 1274.38C1223.33 1284.44 1215.01 1292.21 1204.92 1292.54Z" fill="#A593E2"/>
<path d="M1288.17 690.079C1287.4 675.793 1275.34 664.783 1261.04 665.248L591.134 687.047C576.915 687.509 565.902 699.5 566.671 713.709L595.105 1286.51C595.879 1300.88 607.948 1311.96 622.244 1311.5L1293.07 1289.67C1307.82 1289.19 1319.27 1276.65 1318.49 1261.9L1288.17 690.079Z" fill="#6E55BD"/>
<path d="M1384.55 1288.22L729.243 1309.55C711.966 1310.11 696.732 1298.21 693.046 1281.34L591.338 815.607L571.554 725.03C567.507 706.489 581.246 688.899 600.205 688.282L1256.88 666.914C1273.32 666.379 1287.85 677.692 1291.36 693.802L1312.85 792.13L1413.2 1251.4C1417.24 1269.94 1403.51 1287.61 1384.55 1288.22Z" fill="#DDD6F2"/>
<path d="M729.423 995.241L698.309 996.253C694.105 996.39 690.494 993.599 689.445 989.578L681.843 958.219C680.52 952.828 684.557 947.57 690.138 947.388L721.252 946.376C725.38 946.241 729.068 949.029 730.04 953.054L737.719 984.41C738.966 989.803 735.004 995.059 729.423 995.241Z" fill="#F2EFF8"/>
<path d="M822.689 992.206L791.498 993.221C787.37 993.355 783.683 990.567 782.71 986.542L775.108 955.184C773.785 949.793 777.746 944.537 783.327 944.355L814.441 943.343C818.645 943.206 822.333 945.994 823.306 950.019L830.908 981.377C832.231 986.768 828.193 992.026 822.689 992.206Z" fill="#F2EFF8"/>
<path d="M915.878 989.173L884.687 990.188C880.559 990.322 876.872 987.534 875.899 983.51L868.297 952.151C866.974 946.761 870.935 941.505 876.516 941.323L907.706 940.308C911.835 940.174 915.522 942.962 916.495 946.986L924.097 978.345C925.42 983.735 921.459 988.992 915.878 989.173Z" fill="#F2EFF8"/>
<path d="M1009.07 986.141L977.953 987.153C973.748 987.29 970.137 984.5 969.088 980.478L961.486 949.119C960.163 943.729 964.201 938.47 969.781 938.288L1000.9 937.276C1005.1 937.139 1008.71 939.93 1009.68 943.954L1017.36 975.31C1018.69 980.701 1014.65 985.959 1009.07 986.141Z" fill="#F2EFF8"/>
<path d="M1102.33 983.106L1071.14 984.121C1067.01 984.255 1063.33 981.467 1062.35 977.443L1054.75 946.084C1053.43 940.694 1057.39 935.437 1062.97 935.256L1094.16 934.241C1098.29 934.106 1101.98 936.895 1102.95 940.919L1110.55 972.278C1111.87 977.668 1107.84 982.927 1102.33 983.106Z" fill="#F2EFF8"/>
<path d="M1195.52 980.074L1164.33 981.089C1160.2 981.223 1156.51 978.435 1155.54 974.411L1147.94 943.052C1146.62 937.661 1150.65 932.403 1156.16 932.224L1187.35 931.209C1191.48 931.074 1195.17 933.862 1196.14 937.887L1203.74 969.245C1205.06 974.636 1201.1 979.892 1195.52 980.074Z" fill="#F2EFF8"/>
<path d="M1288.71 977.041L1257.6 978.054C1253.39 978.19 1249.78 975.4 1248.81 971.376L1241.13 940.019C1239.81 934.629 1243.84 929.37 1249.42 929.189L1280.54 928.176C1284.74 928.039 1288.35 930.83 1289.4 934.852L1297.01 966.211C1298.33 971.601 1294.29 976.86 1288.71 977.041Z" fill="#F2EFF8"/>
<path d="M987.362 902.36L956.248 903.373C952.043 903.51 948.432 900.719 947.383 896.697L939.784 865.415C938.458 859.948 942.496 854.689 948.076 854.508L979.19 853.495C983.318 853.361 987.008 856.225 987.981 860.25L995.657 891.529C996.906 896.999 992.942 902.179 987.362 902.36Z" fill="#F2EFF8"/>
<path d="M1080.63 899.325L1049.44 900.34C1045.31 900.474 1041.62 897.686 1040.65 893.662L1033.05 862.38C1031.72 856.913 1035.68 851.657 1041.27 851.475L1072.38 850.463C1076.58 850.326 1080.27 853.19 1081.25 857.215L1088.85 888.497C1090.17 893.964 1086.13 899.146 1080.63 899.325Z" fill="#F2EFF8"/>
<path d="M1173.82 896.293L1142.63 897.308C1138.5 897.442 1134.81 894.654 1133.84 890.63L1126.24 859.348C1124.91 853.881 1128.87 848.624 1134.45 848.443L1165.64 847.428C1169.77 847.293 1173.46 850.158 1174.44 854.182L1182.03 885.465C1183.36 890.931 1179.4 896.111 1173.82 896.293Z" fill="#F2EFF8"/>
<path d="M1267 893.261L1235.89 894.273C1231.69 894.41 1228.08 891.619 1227.03 887.597L1219.43 856.315C1218.1 850.848 1222.14 845.589 1227.72 845.408L1258.83 844.395C1263.04 844.259 1266.65 847.126 1267.62 851.15L1275.3 882.43C1276.63 887.897 1272.59 893.079 1267 893.261Z" fill="#F2EFF8"/>
<path d="M750.823 1079.03L719.709 1080.04C715.504 1080.18 711.817 1077.39 710.844 1073.37L703.242 1042.01C701.919 1036.62 705.957 1031.36 711.461 1031.18L742.651 1030.17C746.779 1030.03 750.467 1032.82 751.44 1036.84L759.041 1068.2C760.365 1073.59 756.403 1078.85 750.823 1079.03Z" fill="#F2EFF8"/>
<path d="M844.012 1076L812.898 1077.01C808.77 1077.15 805.082 1074.36 804.109 1070.33L796.431 1038.98C795.184 1033.58 799.146 1028.33 804.726 1028.15L835.84 1027.13C840.045 1027 843.732 1029.78 844.705 1033.81L852.307 1065.17C853.63 1070.56 849.592 1075.82 844.012 1076Z" fill="#7B1CE0"/>
<path d="M937.277 1072.96L906.087 1073.98C901.959 1074.11 898.271 1071.32 897.298 1067.3L889.697 1035.94C888.373 1030.55 892.335 1025.3 897.915 1025.11L929.106 1024.1C933.234 1023.96 936.922 1026.75 937.894 1030.78L945.496 1062.14C946.819 1067.53 942.858 1072.78 937.277 1072.96Z" fill="#F2EFF8"/>
<path d="M1030.47 1069.93L999.352 1070.94C995.148 1071.08 991.46 1068.29 990.487 1064.27L982.886 1032.91C981.562 1027.52 985.6 1022.26 991.181 1022.08L1022.29 1021.07C1026.42 1020.93 1030.11 1023.72 1031.08 1027.74L1038.76 1059.1C1040.01 1064.49 1036.05 1069.75 1030.47 1069.93Z" fill="#F2EFF8"/>
<path d="M1123.73 1066.9L1092.54 1067.91C1088.41 1068.05 1084.73 1065.26 1083.75 1061.23L1076.15 1029.87C1074.83 1024.48 1078.79 1019.23 1084.37 1019.05L1115.48 1018.03C1119.69 1017.9 1123.38 1020.69 1124.35 1024.71L1131.95 1056.07C1133.27 1061.46 1129.24 1066.72 1123.73 1066.9Z" fill="#F2EFF8"/>
<path d="M1216.92 1063.86L1185.73 1064.88C1181.6 1065.01 1177.91 1062.23 1176.94 1058.2L1169.34 1026.84C1168.02 1021.45 1171.98 1016.2 1177.56 1016.01L1208.75 1015C1212.88 1014.86 1216.56 1017.65 1217.54 1021.68L1225.14 1053.04C1226.46 1058.43 1222.5 1063.68 1216.92 1063.86Z" fill="#F2EFF8"/>
<path d="M772.219 1162.75L741.029 1163.76C736.901 1163.89 733.213 1161.11 732.241 1157.08L724.641 1125.8C723.316 1120.33 727.353 1115.07 732.858 1114.89L764.048 1113.88C768.176 1113.75 771.866 1116.61 772.839 1120.63L780.438 1151.92C781.764 1157.38 777.8 1162.56 772.219 1162.75Z" fill="#F2EFF8"/>
<path d="M865.409 1159.71L834.295 1160.73C830.09 1160.86 826.479 1158.07 825.506 1154.05L817.83 1122.77C816.505 1117.3 820.543 1112.04 826.123 1111.86L857.237 1110.85C861.442 1110.71 865.055 1113.58 866.105 1117.6L873.704 1148.88C875.03 1154.35 870.989 1159.53 865.409 1159.71Z" fill="#F2EFF8"/>
<path d="M958.674 1156.68L927.484 1157.69C923.356 1157.83 919.668 1155.04 918.695 1151.02L911.096 1119.73C909.77 1114.27 913.732 1109.01 919.312 1108.83L950.503 1107.81C954.631 1107.68 958.321 1110.54 959.294 1114.57L966.893 1145.85C968.219 1151.32 964.255 1156.5 958.674 1156.68Z" fill="#F2EFF8"/>
<path d="M1051.86 1153.65L1020.75 1154.66C1016.54 1154.8 1012.86 1152.01 1011.88 1147.98L1004.28 1116.7C1002.96 1111.23 1007 1105.97 1012.5 1105.8L1043.69 1104.78C1047.82 1104.65 1051.51 1107.51 1052.48 1111.54L1060.08 1142.82C1061.41 1148.28 1057.44 1153.46 1051.86 1153.65Z" fill="#F2EFF8"/>
<path d="M1145.05 1150.61L1113.94 1151.63C1109.81 1151.76 1106.12 1148.97 1105.15 1144.95L1097.47 1113.67C1096.22 1108.2 1100.19 1102.94 1105.77 1102.76L1136.88 1101.75C1141.09 1101.61 1144.7 1104.48 1145.75 1108.5L1153.35 1139.78C1154.67 1145.25 1150.63 1150.43 1145.05 1150.61Z" fill="#F2EFF8"/>
<path d="M1238.32 1147.58L1207.13 1148.59C1203 1148.73 1199.31 1145.94 1198.34 1141.92L1190.74 1110.63C1189.41 1105.17 1193.38 1099.91 1198.96 1099.73L1230.15 1098.71C1234.27 1098.58 1237.96 1101.44 1238.94 1105.47L1246.54 1136.75C1247.86 1142.22 1243.9 1147.4 1238.32 1147.58Z" fill="#F2EFF8"/>
<path d="M792.195 1242.76L761.081 1243.77C756.876 1243.91 753.189 1241.12 752.216 1237.09L744.614 1205.73C743.291 1200.34 747.329 1195.08 752.833 1194.91L784.023 1193.89C788.152 1193.76 791.839 1196.54 792.812 1200.57L800.414 1231.93C801.737 1237.32 797.775 1242.57 792.195 1242.76Z" fill="#F2EFF8"/>
<path d="M885.384 1239.72L854.27 1240.74C850.142 1240.87 846.454 1238.08 845.482 1234.06L837.803 1202.7C836.557 1197.31 840.518 1192.05 846.099 1191.87L877.213 1190.86C881.417 1190.72 885.105 1193.51 886.078 1197.53L893.679 1228.89C895.003 1234.28 890.965 1239.54 885.384 1239.72Z" fill="#F2EFF8"/>
<path d="M978.649 1236.69L947.459 1237.7C943.331 1237.84 939.643 1235.05 938.671 1231.03L931.069 1199.67C929.745 1194.28 933.707 1189.02 939.288 1188.84L970.478 1187.82C974.606 1187.69 978.294 1190.48 979.266 1194.5L986.868 1225.86C988.191 1231.25 984.23 1236.51 978.649 1236.69Z" fill="#F2EFF8"/>
<path d="M1071.84 1233.66L1040.72 1234.67C1036.52 1234.81 1032.83 1232.02 1031.86 1227.99L1024.26 1196.63C1022.93 1191.24 1026.97 1185.99 1032.55 1185.8L1063.67 1184.79C1067.79 1184.66 1071.48 1187.44 1072.46 1191.47L1080.13 1222.83C1081.38 1228.22 1077.42 1233.47 1071.84 1233.66Z" fill="#F2EFF8"/>
<path d="M1165.1 1230.62L1133.91 1231.64C1129.79 1231.77 1126.1 1228.98 1125.13 1224.96L1117.52 1193.6C1116.2 1188.21 1120.16 1182.95 1125.74 1182.77L1156.86 1181.76C1161.06 1181.62 1164.75 1184.41 1165.72 1188.43L1173.32 1219.79C1174.65 1225.18 1170.61 1230.44 1165.1 1230.62Z" fill="#F2EFF8"/>
<path d="M1258.29 1227.59L1227.1 1228.6C1222.97 1228.74 1219.29 1225.95 1218.31 1221.93L1210.71 1190.57C1209.39 1185.18 1213.35 1179.92 1218.93 1179.74L1250.12 1178.72C1254.25 1178.59 1257.94 1181.38 1258.91 1185.4L1266.51 1216.76C1267.83 1222.15 1263.87 1227.41 1258.29 1227.59Z" fill="#F2EFF8"/>
<path d="M1314.32 790.551L592.817 814.029L570.964 713.952C567.996 700.35 578.061 687.472 591.975 687.019L1260.58 665.263C1275.79 664.768 1289.14 675.201 1292.38 690.018L1314.32 790.551Z" fill="#7B1CE0"/>
<path d="M1227.95 664.182C1227.97 664.896 1227.99 665.609 1228.01 666.323C1228.45 707.863 1201.56 742.181 1167.31 743.296C1162.49 743.452 1158.54 739.678 1158.39 734.862C1158.23 730.046 1161.93 726.099 1166.74 725.942C1191.43 725.139 1210.78 698.796 1210.66 666.887C1210.64 666.174 1210.61 665.46 1210.59 664.747C1209.52 631.798 1188.08 605.711 1162.86 606.532C1137.63 607.353 1117.94 634.778 1119.01 667.727C1119.03 668.441 1118.98 669.156 1118.85 669.875L1102.03 670.422C1101.8 669.715 1101.68 669.005 1101.65 668.292C1100.27 625.787 1127.51 590.31 1162.29 589.178C1197.15 588.044 1226.56 621.678 1227.95 664.182Z" fill="#6E55BD"/>
<path d="M733.52 749.529C733.243 741.043 726.137 734.31 717.575 734.589C709.089 734.865 702.435 742.046 702.711 750.531C702.99 759.093 710.094 765.75 718.58 765.474C727.142 765.195 733.798 758.091 733.52 749.529Z" fill="#3E3775"/>
<path d="M1182.49 734.919C1182.22 726.434 1175.11 719.701 1166.55 719.979C1158.06 720.256 1151.33 727.439 1151.61 735.924C1151.89 744.486 1159.07 751.14 1167.55 750.864C1176.12 750.585 1182.77 743.481 1182.49 734.919Z" fill="#3E3775"/>
<path d="M714.542 603.748C679.758 604.88 652.521 640.357 653.904 682.862C653.927 683.575 654.052 684.285 654.279 684.992L671.098 684.445C671.227 683.726 671.28 683.01 671.257 682.297C670.185 649.348 689.879 621.922 715.106 621.102C740.334 620.281 761.769 646.368 762.841 679.317C762.864 680.03 762.862 680.745 762.834 681.46C763.03 713.366 743.684 739.708 718.992 740.512C714.176 740.669 710.401 744.618 710.558 749.434C710.715 754.25 714.74 758.022 719.556 757.865C753.805 756.751 780.697 722.433 780.264 680.893C780.241 680.179 780.217 679.466 780.194 678.752C778.811 636.248 749.401 602.614 714.542 603.748Z" fill="#6E55BD"/>
<path d="M963.014 742.061C962.738 733.576 955.631 726.843 947.145 727.119C938.583 727.398 931.929 734.578 932.206 743.064C932.484 751.626 939.588 758.282 948.15 758.004C956.636 757.727 963.292 750.623 963.014 742.061Z" fill="#3E3775"/>
<path d="M944.036 596.28C909.252 597.412 882.015 632.889 883.398 675.394C883.421 676.107 883.546 676.818 883.773 677.524L900.592 676.977C900.721 676.259 900.775 675.543 900.751 674.829C899.679 641.881 919.373 614.455 944.6 613.634C969.828 612.813 991.263 638.9 992.335 671.849C992.358 672.563 992.356 673.277 992.328 673.992C992.525 705.898 973.178 732.241 948.486 733.044C943.67 733.201 939.972 737.148 940.129 741.964C940.285 746.78 944.234 750.554 949.051 750.398C983.299 749.283 1010.19 714.966 1009.76 673.425C1009.73 672.711 1009.71 671.998 1009.69 671.284C1008.31 628.78 978.896 595.146 944.036 596.28Z" fill="#6E55BD"/>
<path d="M1228.63 666.303C1229.06 707.844 1202.17 742.162 1167.99 743.274C1163.18 743.43 1159.15 739.658 1159 734.842C1158.84 730.026 1162.61 726.077 1167.43 725.92C1192.12 725.117 1211.47 698.774 1211.27 666.868L1228.63 666.303Z" fill="#6E55BD"/>
<path d="M1642.37 1278.76L1393.38 1286.86C1393.38 1286.86 1407.17 1245.09 1419.68 1203.82L1420.44 1203.72L1504.73 1195.23L1609 1184.72L1609.08 1184.72L1609.18 1185.48L1610.79 1194.77L1628.72 1242.55L1642.37 1278.76Z" fill="#E6DED1"/>
<path d="M1449.18 1056.77L1422.26 1104.17L1400.9 1141.75C1400.47 1142.48 1400.01 1143.21 1399.52 1143.94C1399.52 1143.94 1399.5 1143.94 1399.44 1143.94C1386.69 1161.12 1370.66 1176.56 1348.26 1174.77L1342.81 1174.33C1340.41 1173.49 1337.91 1171.96 1335.39 1169.9C1332.8 1167.84 1330.27 1165.33 1327.73 1162.42C1315.24 1148.06 1307.99 1129.78 1306.76 1110.76L1300 1006.37L1330.31 1001.86L1357.51 1099.47L1376.1 1059.22L1389.91 1029.54C1406.05 989.447 1436.35 1005.83 1436.35 1005.83C1472.54 1017.36 1449.18 1056.77 1449.18 1056.77Z" fill="#FC8763"/>
<path d="M1449.18 1056.77L1427.25 1095.44C1408.12 1076.62 1379.39 1052.23 1379.39 1052.23L1389.91 1029.54C1406.05 989.447 1436.35 1005.83 1436.35 1005.83C1472.54 1017.36 1449.18 1056.77 1449.18 1056.77Z" fill="#E5755E"/>
<path d="M1475.06 1012.38C1474.27 1016.23 1473.18 1020.48 1471.87 1024.96C1466.64 1042.88 1458.44 1063.73 1454.22 1072.9C1452.07 1077.41 1446.94 1079.64 1442.23 1078.19C1429.78 1074.23 1419.09 1068.08 1408.78 1061.6C1401.12 1056.72 1393.61 1051.76 1385.74 1047.27C1380.83 1044.53 1377.38 1039.74 1379.74 1034.54C1411.9 964.614 1450.25 950.969 1450.25 950.969L1460.03 969.17C1475.07 982.073 1478.85 994.96 1475.06 1012.38Z" fill="#675995"/>
<path d="M1471.87 1024.96C1466.64 1042.88 1458.44 1063.73 1454.22 1072.9C1452.07 1077.41 1446.94 1079.64 1442.23 1078.19C1429.78 1074.23 1419.09 1068.08 1408.78 1061.6C1408.78 1061.6 1398.33 1036.92 1425.12 1006.43C1425.12 1006.43 1452.32 1016.79 1471.87 1024.96Z" fill="#5C4BA3"/>
<path d="M1527.34 1198.71C1528.42 1198.98 1624.77 1231.81 1624.77 1231.81L1613.28 1200.96L1527.34 1198.71Z" fill="#AFA8A0"/>
<path d="M1593.19 1086.9C1591.51 1096.29 1590.98 1105.87 1591.75 1115.34C1591.84 1116.56 1591.93 1117.76 1592.02 1118.93L1594.99 1130.46L1606.82 1176.38L1609 1184.72L1609.18 1185.48L1611.55 1194.74L1610.79 1194.77L1507.4 1199.66L1420.45 1203.79L1420.44 1203.72L1435.44 1104.89C1436.9 1095.43 1433.83 1085.89 1427.33 1079.06C1427.01 1078.71 1426.7 1078.39 1426.38 1078.09C1413.68 1064.04 1410.34 1043.8 1417.27 1026.12L1440.67 966.816C1444.25 956.981 1446.95 952.913 1454.4 948.998L1493.77 931.339L1551.11 927.101L1612.58 948.901C1625.08 954.387 1631.5 968.336 1627.56 981.321C1622.52 997.938 1611.82 1019.64 1602.94 1047.71C1599.19 1059.61 1595.72 1072.66 1593.19 1086.9Z" fill="#675995"/>
<path d="M1675.06 1206.3C1671.82 1210.08 1668.09 1213.18 1664.03 1215.38C1659.97 1217.66 1655.58 1219.02 1651.01 1219.63C1629.5 1222.09 1614.29 1213.02 1537.13 1200.76L1543.44 1171.25L1622.71 1166.14C1628.05 1165.66 1631.27 1161.04 1629.9 1156.49L1610.54 1102.71L1600.2 1074.04L1599.24 1060.99C1596.27 1047.54 1600.03 1033.57 1608.85 1024.79L1627.38 1006.35C1634.72 999.072 1646.07 1002.15 1650.31 1012.57L1661.37 1039.68C1661.37 1039.68 1664.23 1049.84 1668.03 1065.56C1674.31 1091.38 1683.14 1132.34 1686.38 1168.58C1687.61 1182.7 1683.47 1196.53 1675.06 1206.3Z" fill="#FC8763"/>
<path d="M1592.98 1087.52C1591.3 1096.91 1590.85 1106.49 1591.54 1115.96C1585.21 1086.09 1576.43 1049.18 1578.63 1022.55L1602.73 1048.32C1598.98 1060.23 1595.51 1073.28 1592.98 1087.52Z" fill="#5C4BA3"/>
<path d="M1326.42 988.059C1326.67 986.443 1327.08 985.052 1327.72 983.501C1329.07 980.167 1327.96 976.759 1326.48 973.669C1325.82 972.237 1324.86 970.89 1324.28 969.455C1323.54 967.949 1323.62 965.803 1323.57 964.198C1323.33 956.783 1325 949.381 1327.92 942.629C1328.06 942.318 1328.23 941.981 1328.42 941.617C1329.64 938.976 1329.9 935.294 1327.08 933.319C1325.67 932.294 1323.68 932.282 1322.1 933.175C1318.19 935.292 1315.52 937.905 1314.82 942.29C1314.57 943.981 1314.4 945.747 1314.07 947.441C1313.68 949.52 1312.5 955.375 1309.23 953.951C1307.53 953.241 1304.84 950.497 1303.94 948.919C1297.11 936.438 1293.84 930.039 1284.98 916.399C1283.37 913.926 1282.05 911.138 1279.19 910.312C1277.26 909.763 1273.61 910.417 1272.92 912.736C1272.29 914.593 1274.93 918.104 1275.75 919.761C1278.87 926.241 1282.29 932.558 1285.33 939.04C1288.79 946.427 1292.29 952.971 1286.24 959.75L1277.39 974.96C1275.88 977.765 1275.68 981.138 1276.85 984.085C1278.77 988.92 1282.07 991.797 1285.84 996.879C1290.72 1003.61 1299.15 1004.02 1300.35 1012.48L1300.6 1013.01C1301.98 1015.71 1305.02 1017.22 1307.99 1016.74C1312.78 1015.9 1318.94 1014.63 1319.84 1014.22C1323.77 1012.56 1331.66 1010.54 1331.52 1006.03C1331.43 1003.51 1325.78 992.135 1326.42 988.059Z" fill="#FC8763"/>
<path d="M1603.8 928.218L1463.41 932.021C1453.44 931.274 1445.58 922.423 1457.96 903.118L1482.74 862.899C1489 852.9 1490.56 842.135 1480.95 836.096L1474 831.807C1469.94 829.337 1466.33 826.317 1463.15 822.9C1448.41 807.156 1442.64 782.855 1450.35 761.1C1450.63 760.376 1450.92 759.653 1451.2 758.929C1453.32 753.656 1456.38 748.812 1460.63 745.459C1473.32 735.481 1486.6 743.773 1496.55 753.168C1499.23 755.759 1501.84 758.429 1504.89 760.396C1518.73 769.435 1537.62 761.78 1551.52 770.588C1560.12 775.971 1564.97 786.374 1568.82 796.503C1572.59 806.635 1576.08 817.312 1583.29 824.884C1588.28 830.155 1594.66 833.391 1600.32 837.799C1607.47 843.459 1613.45 850.993 1617.79 859.576C1622.12 868.159 1624.88 877.559 1626.49 887.302C1629.25 903.666 1629.02 927.397 1603.8 928.218Z" fill="#160B09"/>
<path d="M1666.35 1058.5C1641.77 1079.12 1609.52 1094.71 1608.02 1095.83L1600.2 1074.04L1599.24 1060.99C1596.28 1047.54 1600.03 1033.57 1608.85 1024.79L1627.38 1006.35C1634.72 999.072 1646.07 1002.15 1650.31 1012.57L1661.37 1039.68C1661.37 1039.68 1662.55 1042.78 1666.35 1058.5Z" fill="#E5755E"/>
<path d="M1549.86 853.598L1549.8 861.176L1549.79 877.247L1549.65 926.842C1549.65 926.842 1546.86 944.764 1505.84 965.996C1502.76 967.55 1494.52 970.65 1491.2 969.84C1484.49 968.298 1482.93 953.12 1493.87 927.127L1496.37 914.724L1501.14 891.917L1544.41 857.831L1549.86 853.598Z" fill="#FC8763"/>
<path d="M1618.77 953.368C1618.77 953.368 1644.01 971.832 1668.4 1039.3C1670.33 1044.6 1667.85 1050.57 1662.65 1052.88L1608.25 1081.51C1602.97 1083.9 1598.69 1081.67 1596.07 1076.55C1590.84 1066.31 1579.86 1034.76 1575.97 1011.62C1567.64 962.532 1582.83 944.742 1611.74 948.929L1618.77 953.368Z" fill="#675995"/>
<path d="M1557.46 865.901C1555.07 870.035 1552.27 870.968 1549.78 874.645C1533.73 898.586 1509.31 910.171 1496.37 914.724L1501.14 891.917L1544.41 857.831L1549.8 861.176L1557.46 865.901Z" fill="#E5755E"/>
<path d="M1498.58 898.123C1517.36 896.593 1542.06 881.785 1555.07 867.893C1565.95 856.289 1570.57 838.614 1567.74 817.278C1566.1 804.475 1562.91 791.263 1554.18 781.751C1547.99 774.912 1539.28 770.527 1530.27 768.907C1521.19 767.213 1511.73 768.209 1502.94 770.944C1495.82 773.089 1488.96 776.526 1484.1 782.195C1478.12 788.971 1475.89 798.15 1474.04 807.011C1471.32 819.803 1468.98 832.736 1468.64 845.833C1468.3 858.854 1469.96 872.116 1474.94 884.198C1476.69 888.504 1479.05 892.789 1482.88 895.419C1487.42 898.409 1493.17 898.605 1498.58 898.123Z" fill="#FC8763"/>
<path d="M1601.71 906.399L1562.8 907.665C1546.97 908.18 1545.74 879.675 1546.25 864.965C1546.4 859.986 1548.16 855.261 1551.33 851.637C1563.5 837.619 1553.76 832.35 1553.76 832.35C1545.08 828.806 1539.04 840.94 1539.04 840.94C1530.27 839.389 1529.72 822.647 1530.18 813.067C1530.32 810.46 1529.02 808.054 1526.91 806.745C1526.05 806.237 1525.12 805.884 1524.12 805.764C1497.22 802.201 1487.65 785.523 1487.65 785.523C1487.35 785.788 1487.06 786.052 1486.76 786.317C1471.82 800.043 1470.04 827.727 1470.04 827.727C1454.91 811.766 1449.27 779.731 1456.65 759.517C1456.89 758.846 1457.14 758.175 1457.43 757.502C1459.41 752.54 1462.4 748.08 1466.43 744.965C1467.38 744.22 1468.35 743.576 1469.36 743.033C1480.41 737.01 1491.74 744.141 1500.42 752.124C1502.94 754.491 1505.47 757.01 1508.36 758.829C1521.49 767.203 1539.32 760.118 1552.6 768.257C1560.72 773.273 1565.32 782.919 1568.91 792.292C1572.51 801.74 1575.82 811.658 1582.63 818.63C1587.38 823.526 1593.45 826.543 1598.78 830.655C1605.61 835.866 1611.2 842.955 1615.28 850.857C1619.44 858.834 1622.02 867.551 1623.54 876.608C1626.18 891.828 1615.85 905.939 1601.71 906.399Z" fill="#160B09"/>
<path d="M1606.01 928.146L1546.76 929.921C1522.74 930.32 1543.05 881.753 1546.25 864.965C1547.17 860.038 1548.16 855.261 1551.33 851.637C1563.5 837.619 1553.76 832.35 1553.76 832.35C1545.08 828.806 1539.04 840.941 1539.04 840.941C1530.27 839.389 1529.72 822.647 1530.18 813.067C1530.32 810.46 1529.02 808.054 1526.91 806.745C1508.31 804.212 1495.5 796.364 1486.76 786.317C1475.7 773.514 1471.11 757.133 1469.36 743.033C1480.41 737.01 1491.74 744.141 1500.42 752.124C1502.94 754.491 1505.47 757.01 1508.36 758.83C1521.49 767.203 1539.32 760.118 1552.6 768.257C1560.72 773.273 1565.32 782.919 1568.91 792.292C1572.51 801.741 1575.82 811.658 1582.63 818.63C1587.38 823.526 1593.45 826.543 1598.78 830.655C1605.61 835.866 1611.2 842.955 1615.28 850.857C1619.44 858.834 1622.01 867.092 1624.74 875.88C1629.7 891.866 1634.69 925.07 1606.01 928.146Z" fill="#4C241E"/>
<path d="M1488.53 1177.16C1490.03 1176.27 1491.53 1175.23 1493.29 1175.25C1493.24 1176.17 1492.42 1176.73 1491.6 1177.22C1488.75 1178.99 1485.89 1180.77 1482.88 1182.25C1482.2 1182.57 1481.45 1182.91 1480.85 1183.46C1480.34 1184.01 1479.98 1184.87 1480.16 1185.63C1480.68 1187.37 1484.03 1186.95 1485.25 1186.76C1489.43 1185.94 1493.54 1185.11 1497.64 1184.14C1502.87 1182.82 1508.75 1182.32 1512.77 1186.02C1514.98 1188.01 1516.3 1190.88 1518.21 1193.26C1521.41 1197.37 1523.57 1197.99 1531.12 1199.58C1537.36 1200.83 1541.06 1201.63 1546.66 1201.9C1549.28 1195.54 1549.7 1170.81 1549.7 1170.81C1542.66 1170.81 1533.07 1170.05 1526.36 1165.99C1524.09 1164.53 1522.26 1162.45 1520.21 1160.52C1515.24 1155.86 1508.94 1152.78 1502.24 1151.46C1498.92 1150.81 1495.55 1150.61 1492.19 1150.8C1488.75 1150.98 1487.33 1152.03 1484.64 1153.87C1483.74 1154.44 1482.75 1154.78 1481.77 1155.11C1474.66 1157.8 1468.13 1161.76 1461.92 1165.94C1456.75 1169.4 1450.95 1172.11 1447.37 1177.51C1445.76 1179.86 1446.75 1182.04 1449.6 1182.49C1453.14 1182.98 1456.36 1181.04 1459.06 1179.12C1463.02 1176.39 1466.63 1174.2 1471 1172.15C1473.03 1171.16 1475.82 1169.77 1478.13 1170.23C1476.8 1171.88 1474.84 1172.79 1472.88 1173.62C1468.89 1175.51 1463.98 1177.5 1460.62 1180.29C1457.72 1182.76 1458.42 1185.41 1462.2 1186.21C1464.81 1186.74 1467.62 1185.88 1470.03 1184.88C1476 1182.39 1482.98 1180.48 1488.53 1177.16Z" fill="#FC8763"/>
<path d="M1514.17 1271.38L1419.84 1274.45C1417.7 1274.52 1415.82 1273.12 1415.36 1271L1382.59 1134.08C1381.6 1129.29 1377.2 1125.84 1372.3 1126L1186.77 1132.04C1180.42 1132.24 1175.8 1138.21 1177.15 1144.44L1210.72 1285C1211.72 1289.87 1216.12 1293.24 1221.01 1293.09L1406.55 1287.05L1514.8 1283.53C1518.32 1283.41 1520.97 1280.42 1520.63 1276.91C1520.37 1273.63 1517.46 1271.27 1514.17 1271.38Z" fill="#8681D5"/>
<path d="M1297.47 1211.08C1296.17 1206.15 1291.85 1203 1287.76 1204.05C1283.73 1205.1 1281.52 1210 1282.75 1214.93C1284.06 1219.86 1288.45 1223.01 1292.47 1221.96C1296.49 1220.91 1298.78 1216.02 1297.47 1211.08Z" fill="#454545" fill-opacity="0.78"/>
<defs>
<linearGradient id="paint0_linear_1_2" x1="1070.81" y1="1923.96" x2="1065.51" y2="1787.95" gradientUnits="userSpaceOnUse">
<stop stop-color="#E6E6E6"/>
<stop offset="0.05" stop-color="#1A1A1A"/>
<stop offset="0.355" stop-color="#CCCCCC"/>
<stop offset="0.474" stop-color="#E6E6E6"/>
<stop offset="0.617" stop-color="#E6E6E6"/>
<stop offset="0.992" stop-color="#999999"/>
</linearGradient>
<linearGradient id="paint1_linear_1_2" x1="1047.58" y1="1883.2" x2="1047.58" y2="1646.11" gradientUnits="userSpaceOnUse">
<stop stop-color="#E6E6E6"/>
<stop offset="0.22" stop-color="#999999"/>
<stop offset="0.355" stop-color="#CCCCCC"/>
<stop offset="0.474" stop-color="#E6E6E6"/>
<stop offset="0.617" stop-color="#E6E6E6"/>
<stop offset="0.992" stop-color="#666666"/>
</linearGradient>
<linearGradient id="paint2_linear_1_2" x1="2228.84" y1="392.874" x2="339.78" y2="1948.44" gradientUnits="userSpaceOnUse">
<stop stop-color="#CCCCCC"/>
<stop offset="0.476" stop-color="#E6E6E6"/>
<stop offset="1" stop-color="#999999"/>
</linearGradient>
<linearGradient id="paint3_linear_1_2" x1="2228.84" y1="392.874" x2="339.78" y2="1948.44" gradientUnits="userSpaceOnUse">
<stop stop-color="#CCCCCC"/>
<stop offset="0.476" stop-color="#E6E6E6"/>
<stop offset="1" stop-color="#999999"/>
</linearGradient>
<linearGradient id="paint4_linear_1_2" x1="1330.9" y1="-710.422" x2="-567.221" y2="852.588" gradientUnits="userSpaceOnUse">
<stop stop-color="#4D4D4D"/>
<stop offset="0.062" stop-color="#B3B3B3"/>
<stop offset="0.212" stop-color="#CCCCCC"/>
<stop offset="0.411" stop-color="#CECECE"/>
<stop offset="0.631" stop-color="#E6E6E6"/>
<stop offset="0.996" stop-color="#999999"/>
</linearGradient>
<linearGradient id="paint5_linear_1_2" x1="2405.09" y1="1432.22" x2="2405.09" y2="63.933" gradientUnits="userSpaceOnUse">
<stop/>
<stop offset="0.996" stop-color="white"/>
</linearGradient>
</defs>
</svg>
