<svg width="2138" height="1009" viewBox="0 0 2138 1009" fill="none" xmlns="http://www.w3.org/2000/svg">
<path d="M215.1 335.1C218.833 331.767 222.667 328.4 226.6 325C226.6 325 388.7 165.5 713.2 275.5C807.4 307.4 911.1 274.9 970.3 194C1114.3 -2.49995 1288 -76.2 1622.5 100.5C1622.5 100.5 2131.4 43.6999 2066.6 478C2056.2 547.5 2070.2 618.2 2105.6 678.6C2106.27 679.867 2106.97 681.1 2107.7 682.3C2189.7 825.1 2092.5 1008.8 1936 1008.3L442.9 1003.2C114 1002 -36.4001 562.1 215.1 335.1Z" fill="#E5F2DE"/>
<path d="M343.2 987.5L297.5 994.3L293.2 994.9L291.2 995.2L288.4 995.6C286.733 995.867 285.066 996.033 283.4 996.1C271.6 996.7 260 992.8 251.1 985.4C209 950.4 140.4 946.5 114.1 898.2C104.4 880.5 102.5 847.7 89.7998 831.8C73.4998 811.4 42.8998 801.5 33.2998 777.7C25.1998 757.3 35.2998 733.2 25.8998 713.3C21.3998 703.8 12.7998 696.5 6.79979 687.7C0.799788 678.9 -2.40021 666.7 4.29979 658.3C13.6998 646.5 33.9998 651.2 46.4998 660.1C58.8998 668.9 70.2998 681.3 85.8998 682.6C106.3 684.3 126.1 665.9 145.4 672.3C171.8 681 165.7 724.4 191.5 734.6C200.6 738.2 211 736.4 220.8 737.8C242 740.8 257.5 758.8 264.3 777.8C271.2 796.8 271.4 817.3 275 837C278.5 856.8 286.3 877.3 303.6 889.1C310.2 893.6 317.9 896.5 324 901.6C346.1 919.8 334 949.2 339.3 975.6C339.566 976.867 339.9 978.167 340.3 979.5C341.033 982.167 342 984.833 343.2 987.5Z" fill="#869482"/>
<path d="M297.5 994.3L293.2 994.9C257.9 923.7 202.5 833.9 119.8 753C119.3 752.5 119.6 751.6 120.5 751.1C121.4 750.6 122.6 750.6 123.2 751.1C209.2 835.3 265.1 928.6 297.5 994.3Z" fill="white"/>
<path d="M393.5 846.1C401.4 869.1 392.1 894.5 380.1 914.3C368.4 933.9 362.3 959.8 346.4 976.8C340.4 983.2 333.3 988.9 325.1 992.3C321.8 993.6 319.1 995.6 315.8 997C312.3 998.3 308.4 998.6 304.6 998.9C303.667 998.967 302.733 999 301.8 999C300.467 999.133 299.1 999.2 297.7 999.2C294.5 999.3 291.3 999.2 288.2 998.6C282.8 997.7 277.4 995.4 273.8 991.2C270.3 987 268.8 981.4 268.3 975.9C267.8 970.4 268.2 964.8 267.6 959.4C265.9 942.7 256.1 928.1 245.3 915.1C244.033 913.633 242.8 912.2 241.6 910.8C238.4 907.1 235.1 903.5 232 899.9C218.7 884.6 209.8 867.9 201 849.9C191.8 831.5 182.5 812.1 182.2 791.1C181.7 764.1 200.9 742.7 200.9 716.5C201 686.3 180.9 663.4 167.1 638.6C156.8 619.9 153.4 592.9 170.5 580C179.3 573.4 191.4 572.4 200 565.7C214 554.8 213.9 534.1 214.3 516.5C214.8 498.7 220.2 477.2 237.3 472.7C252.9 468.7 267.8 482.1 275.4 496.4C283 510.6 287.3 527.2 299 538.3C315.9 554.3 345.1 555.4 357.2 575.3C375 604.6 340.7 648.8 363.3 674.6C371 683.4 383.6 686.8 391.4 695.7C404.4 710.4 399.3 733.4 391 751.3C382.8 769.2 371.9 787.9 375.8 807.1C378.6 821.2 388.9 832.5 393.5 846.1Z" fill="#B2C5AE"/>
<path d="M310 901.1C308.8 942.2 305.1 976 301.8 999C300.467 999.133 299.1 999.2 297.7 999.2C307.3 931.8 320.6 770.4 263.9 597.3C263.7 596.6 264.3 596 265.4 596C266.5 595.9 267.5 596.5 267.8 597.2C306.6 715.7 312.2 827.9 310 901.1Z" fill="white"/>
<path d="M1850 1003.6H1790.9C1848.7 783.2 2018.9 793.4 2050.4 794.1C2054.5 794.2 2056.7 794.4 2056.7 794.4C2026.9 1017.1 1850 1003.6 1850 1003.6Z" fill="#869482"/>
<path d="M1970.9 469.7C1970.6 468.5 1970.3 468 1970.3 468C1614.6 655.9 1793 1003.2 1790.9 1003.6H1820.9C1832.9 1003.6 1844.5 999.5 1853.3 992C2074.1 802.8 1979.7 495 1970.9 469.7Z" fill="#B2C5AE"/>
<path d="M1195.4 1002.9H329.2C302 1002.9 282 977.5 288.3 951.1L461.2 230.6C467.5 204.2 483.5 185.6 510.7 185.6H1377.7C1397.1 185.6 1411.4 203.7 1406.9 222.6L1225.4 979.2C1222.1 993.1 1209.6 1002.9 1195.4 1002.9Z" fill="#F8B467"/>
<path d="M1282.1 1002.9H397.8C381.9 1002.9 369.6 986.3 371.7 970.4L467.1 221.7C469.9 201 487.5 185.6 508.4 185.6H1382.6C1400.1 185.6 1413.7 201 1411.3 218.5L1308.3 980C1306.5 993.1 1295.3 1002.9 1282.1 1002.9Z" fill="#869482"/>
<path d="M1416.5 219.2C1416.1 200.5 1400.8 185.6 1382.1 185.6H505.8C487.2 185.6 472.3 200.8 472.7 219.4L485.5 969.1C485.9 987.9 501.2 1002.9 519.9 1002.9H1397.4C1416.7 1002.9 1432.2 987 1431.8 967.7L1416.5 219.2Z" fill="#4E564C"/>
<path d="M1517 1004.9H659.8C637.2 1004.9 617.8 988.7 613.7 966.5L500.6 353.6L478.6 234.4C474.1 210 492.8 187.6 517.6 187.6H1376.6C1398.1 187.6 1416.6 203 1420.5 224.2L1444.4 353.6L1556 958C1560.5 982.4 1541.8 1004.9 1517 1004.9Z" fill="#C9DDC3"/>
<path d="M673.4 594.2H632.7C627.2 594.2 622.6 590.4 621.4 585.1L612.8 543.8C611.3 536.7 616.8 530 624.1 530H664.8C670.2 530 674.9 533.8 676 539.1L684.7 580.4C686.1 587.5 680.7 594.2 673.4 594.2Z" fill="#F2EFF8"/>
<path d="M795.4 594.2H754.6C749.2 594.2 744.5 590.4 743.4 585.1L734.8 543.8C733.3 536.7 738.7 530 746 530H786.7C792.2 530 796.9 533.8 798 539.1L806.6 580.4C808.1 587.5 802.6 594.2 795.4 594.2Z" fill="#F2EFF8"/>
<path d="M917.3 594.2H876.5C871.1 594.2 866.4 590.4 865.3 585.1L856.7 543.8C855.2 536.7 860.6 530 867.9 530H908.7C914.1 530 918.8 533.8 919.9 539.1L928.5 580.4C930 587.5 924.6 594.2 917.3 594.2Z" fill="#F2EFF8"/>
<path d="M1039.2 594.2H998.5C993 594.2 988.4 590.4 987.2 585.1L978.6 543.8C977.1 536.7 982.6 530 989.9 530H1030.6C1036.1 530 1040.7 533.8 1041.8 539.1L1050.5 580.4C1052 587.5 1046.5 594.2 1039.2 594.2Z" fill="#F2EFF8"/>
<path d="M1161.2 594.2H1120.4C1115 594.2 1110.3 590.4 1109.2 585.1L1100.6 543.8C1099.1 536.7 1104.5 530 1111.8 530H1152.6C1158 530 1162.7 533.8 1163.8 539.1L1172.4 580.4C1173.9 587.5 1168.4 594.2 1161.2 594.2Z" fill="#F2EFF8"/>
<path d="M1283.1 594.2H1242.3C1236.9 594.2 1232.2 590.4 1231.1 585.1L1222.5 543.8C1221 536.7 1226.5 530 1233.7 530H1274.5C1279.9 530 1284.6 533.8 1285.7 539.1L1294.3 580.4C1295.8 587.5 1290.4 594.2 1283.1 594.2Z" fill="#F2EFF8"/>
<path d="M1405 594.2H1364.3C1358.8 594.2 1354.2 590.4 1353.1 585.1L1344.4 543.8C1342.9 536.7 1348.4 530 1355.7 530H1396.4C1401.9 530 1406.5 533.8 1407.7 539.1L1416.3 580.4C1417.8 587.5 1412.3 594.2 1405 594.2Z" fill="#F2EFF8"/>
<path d="M1014.4 483.8H973.7C968.2 483.8 963.6 480 962.4 474.7L953.8 433.5C952.3 426.3 957.8 419.6 965.1 419.6H1005.8C1011.2 419.6 1015.9 423.5 1017 428.8L1025.7 470C1027.1 477.2 1021.7 483.8 1014.4 483.8Z" fill="#F2EFF8"/>
<path d="M1136.4 483.8H1095.6C1090.2 483.8 1085.5 480 1084.4 474.7L1075.8 433.5C1074.3 426.3 1079.7 419.6 1087 419.6H1127.7C1133.2 419.6 1137.9 423.5 1139 428.8L1147.6 470C1149.1 477.2 1143.6 483.8 1136.4 483.8Z" fill="#F2EFF8"/>
<path d="M1258.3 483.8H1217.5C1212.1 483.8 1207.4 480 1206.3 474.7L1197.7 433.5C1196.2 426.3 1201.6 419.6 1208.9 419.6H1249.7C1255.1 419.6 1259.8 423.5 1260.9 428.8L1269.5 470C1271 477.2 1265.6 483.8 1258.3 483.8Z" fill="#F2EFF8"/>
<path d="M1380.2 483.8H1339.5C1334 483.8 1329.4 480 1328.2 474.7L1319.6 433.5C1318.1 426.3 1323.6 419.6 1330.9 419.6H1371.6C1377.1 419.6 1381.7 423.5 1382.8 428.8L1391.5 470C1393 477.2 1387.5 483.8 1380.2 483.8Z" fill="#F2EFF8"/>
<path d="M697.8 704.6H657.1C651.6 704.6 646.9 700.8 645.8 695.5L637.2 654.2C635.7 647.1 641.2 640.4 648.4 640.4H689.2C694.6 640.4 699.3 644.2 700.4 649.5L709 690.8C710.5 697.9 705.1 704.6 697.8 704.6Z" fill="#F2EFF8"/>
<path d="M819.7 704.6H779C773.6 704.6 768.9 700.8 767.8 695.5L759.1 654.2C757.7 647.1 763.1 640.4 770.4 640.4H811.1C816.6 640.4 821.3 644.2 822.4 649.5L831 690.8C832.5 697.9 827 704.6 819.7 704.6Z" fill="#F3B168"/>
<path d="M941.7 704.6H900.9C895.5 704.6 890.8 700.8 889.7 695.5L881.1 654.2C879.6 647.1 885 640.4 892.3 640.4H933.1C938.5 640.4 943.2 644.2 944.3 649.5L952.9 690.8C954.4 697.9 949 704.6 941.7 704.6Z" fill="#F2EFF8"/>
<path d="M1063.6 704.6H1022.9C1017.4 704.6 1012.7 700.8 1011.6 695.5L1003 654.2C1001.5 647.1 1007 640.4 1014.3 640.4H1055C1060.4 640.4 1065.1 644.2 1066.2 649.5L1074.9 690.8C1076.3 697.9 1070.9 704.6 1063.6 704.6Z" fill="#F2EFF8"/>
<path d="M1185.6 704.6H1144.8C1139.4 704.6 1134.7 700.8 1133.6 695.5L1125 654.2C1123.5 647.1 1128.9 640.4 1136.2 640.4H1176.9C1182.4 640.4 1187.1 644.2 1188.2 649.5L1196.8 690.8C1198.3 697.9 1192.8 704.6 1185.6 704.6Z" fill="#F2EFF8"/>
<path d="M1307.5 704.6H1266.7C1261.3 704.6 1256.6 700.8 1255.5 695.5L1246.9 654.2C1245.4 647.1 1250.8 640.4 1258.1 640.4H1298.9C1304.3 640.4 1309 644.2 1310.1 649.5L1318.7 690.8C1320.2 697.9 1314.8 704.6 1307.5 704.6Z" fill="#F2EFF8"/>
<path d="M722.2 814.9H681.4C676 814.9 671.3 811.1 670.2 805.8L661.6 764.6C660.1 757.4 665.6 750.7 672.8 750.7H713.6C719 750.7 723.7 754.6 724.8 759.9L733.4 801.1C734.9 808.3 729.5 814.9 722.2 814.9Z" fill="#F2EFF8"/>
<path d="M844.1 814.9H803.4C797.9 814.9 793.3 811.1 792.2 805.8L783.5 764.6C782 757.4 787.5 750.7 794.8 750.7H835.5C841 750.7 845.6 754.6 846.8 759.9L855.4 801.1C856.9 808.3 851.4 814.9 844.1 814.9Z" fill="#F2EFF8"/>
<path d="M966.1 814.9H925.3C919.9 814.9 915.2 811.1 914.1 805.8L905.5 764.6C904 757.4 909.4 750.7 916.7 750.7H957.5C962.9 750.7 967.6 754.6 968.7 759.9L977.3 801.1C978.8 808.3 973.4 814.9 966.1 814.9Z" fill="#F2EFF8"/>
<path d="M1088 814.9H1047.3C1041.8 814.9 1037.1 811.1 1036 805.8L1027.4 764.6C1025.9 757.4 1031.4 750.7 1038.6 750.7H1079.4C1084.8 750.7 1089.5 754.6 1090.6 759.9L1099.2 801.1C1100.7 808.3 1095.3 814.9 1088 814.9Z" fill="#F2EFF8"/>
<path d="M1209.9 814.9H1169.2C1163.8 814.9 1159.1 811.1 1158 805.8L1149.3 764.6C1147.9 757.4 1153.3 750.7 1160.6 750.7H1201.3C1206.8 750.7 1211.4 754.6 1212.6 759.9L1221.2 801.1C1222.7 808.3 1217.2 814.9 1209.9 814.9Z" fill="#F2EFF8"/>
<path d="M1331.9 814.9H1291.1C1285.7 814.9 1281 811.1 1279.9 805.8L1271.3 764.6C1269.8 757.4 1275.2 750.7 1282.5 750.7H1323.3C1328.7 750.7 1333.4 754.6 1334.5 759.9L1343.1 801.1C1344.6 808.3 1339.2 814.9 1331.9 814.9Z" fill="#F2EFF8"/>
<path d="M744.9 920.3H704.2C698.7 920.3 694 916.5 692.9 911.2L684.3 869.9C682.8 862.8 688.3 856.1 695.5 856.1H736.3C741.7 856.1 746.4 859.9 747.5 865.2L756.1 906.5C757.6 913.6 752.2 920.3 744.9 920.3Z" fill="#F2EFF8"/>
<path d="M866.8 920.3H826.1C820.7 920.3 816 916.5 814.9 911.2L806.2 869.9C804.8 862.8 810.2 856.1 817.5 856.1H858.2C863.7 856.1 868.4 859.9 869.5 865.2L878.1 906.5C879.6 913.6 874.1 920.3 866.8 920.3Z" fill="#F2EFF8"/>
<path d="M988.8 920.3H948C942.6 920.3 937.9 916.5 936.8 911.2L928.2 869.9C926.7 862.8 932.1 856.1 939.4 856.1H980.2C985.6 856.1 990.3 859.9 991.4 865.2L1000 906.5C1001.5 913.6 996.1 920.3 988.8 920.3Z" fill="#F2EFF8"/>
<path d="M1110.7 920.3H1070C1064.5 920.3 1059.8 916.5 1058.7 911.2L1050.1 869.9C1048.6 862.8 1054.1 856.1 1061.4 856.1H1102.1C1107.5 856.1 1112.2 859.9 1113.3 865.2L1122 906.5C1123.4 913.6 1118 920.3 1110.7 920.3Z" fill="#F2EFF8"/>
<path d="M1232.7 920.3H1191.9C1186.5 920.3 1181.8 916.5 1180.7 911.2L1172.1 869.9C1170.6 862.8 1176 856.1 1183.3 856.1H1224C1229.5 856.1 1234.2 859.9 1235.3 865.2L1243.9 906.5C1245.4 913.6 1239.9 920.3 1232.7 920.3Z" fill="#F2EFF8"/>
<path d="M1354.6 920.3H1313.8C1308.4 920.3 1303.7 916.5 1302.6 911.2L1294 869.9C1292.5 862.8 1297.9 856.1 1305.2 856.1H1346C1351.4 856.1 1356.1 859.9 1357.2 865.2L1365.8 906.5C1367.3 913.6 1361.9 920.3 1354.6 920.3Z" fill="#F2EFF8"/>
<path d="M1446.4 351.6H502.6L478.3 219.9C475 202 488.7 185.6 506.9 185.6H1381.5C1401.4 185.6 1418.4 199.8 1422 219.3L1446.4 351.6Z" fill="#F3B168"/>
<path d="M1338.9 182.8C1338.9 183.733 1338.9 184.667 1338.9 185.6C1337.7 239.9 1301.1 283.6 1256.3 283.6C1250 283.6 1245 278.5 1245 272.2C1245 265.9 1250 260.9 1256.3 260.9C1288.6 260.9 1315 227.3 1316.2 185.6C1316.2 184.667 1316.2 183.733 1316.2 182.8C1316.2 139.7 1289.3 104.7 1256.3 104.7C1223.3 104.7 1196.4 139.7 1196.4 182.8C1196.4 183.733 1196.3 184.667 1196.1 185.6H1174.1C1173.83 184.667 1173.7 183.733 1173.7 182.8C1173.7 127.2 1210.8 82 1256.3 82C1301.9 82 1338.9 127.2 1338.9 182.8Z" fill="#4E564C"/>
<path d="M689.2 273.3C689.2 262.2 680.2 253.1 669 253.1C657.9 253.1 648.9 262.2 648.9 273.3C648.9 284.5 657.9 293.5 669 293.5C680.2 293.5 689.2 284.5 689.2 273.3Z" fill="#646F62"/>
<path d="M1276.5 273.3C1276.5 262.2 1267.5 253.1 1256.3 253.1C1245.2 253.1 1236.1 262.2 1236.1 273.3C1236.1 284.5 1245.2 293.5 1256.3 293.5C1267.5 293.5 1276.5 284.5 1276.5 273.3Z" fill="#646F62"/>
<path d="M670.6 82C625.1 82 588 127.2 588 182.8C588 183.733 588.133 184.667 588.4 185.6H610.4C610.6 184.667 610.7 183.733 610.7 182.8C610.7 139.7 637.6 104.7 670.6 104.7C703.6 104.7 730.5 139.7 730.5 182.8C730.5 183.733 730.467 184.667 730.4 185.6C729.3 227.3 702.9 260.9 670.6 260.9C664.3 260.9 659.2 265.9 659.2 272.2C659.2 278.5 664.3 283.6 670.6 283.6C715.4 283.6 752 239.9 753.2 185.6C753.2 184.667 753.2 183.733 753.2 182.8C753.2 127.2 716.2 82 670.6 82Z" fill="#4E564C"/>
<path d="M989.4 273.3C989.4 262.2 980.4 253.1 969.3 253.1C958.1 253.1 949.1 262.2 949.1 273.3C949.1 284.5 958.1 293.5 969.3 293.5C980.4 293.5 989.4 284.5 989.4 273.3Z" fill="#646F62"/>
<path d="M970.8 82C925.3 82 888.2 127.2 888.2 182.8C888.2 183.733 888.333 184.667 888.6 185.6H910.6C910.8 184.667 910.9 183.733 910.9 182.8C910.9 139.7 937.8 104.7 970.8 104.7C1003.8 104.7 1030.7 139.7 1030.7 182.8C1030.7 183.733 1030.67 184.667 1030.6 185.6C1029.5 227.3 1003.1 260.9 970.8 260.9C964.5 260.9 959.5 265.9 959.5 272.2C959.5 278.5 964.5 283.6 970.8 283.6C1015.6 283.6 1052.2 239.9 1053.4 185.6C1053.4 184.667 1053.4 183.733 1053.4 182.8C1053.4 127.2 1016.4 82 970.8 82Z" fill="#4E564C"/>
<path d="M1339.7 185.6C1338.5 239.9 1301.9 283.6 1257.2 283.6C1250.9 283.6 1245.8 278.5 1245.8 272.2C1245.8 265.9 1250.9 260.9 1257.2 260.9C1289.5 260.9 1315.9 227.3 1317 185.6H1339.7Z" fill="#4E564C"/>
<path d="M1854.3 1003.5H1528.6C1528.6 1003.5 1548.4 949.5 1566.5 896.1L1567.5 896L1678 888.5L1814.7 879.2H1814.8L1814.9 880.2L1816.6 892.4L1838 955.6L1854.3 1003.5Z" fill="#646F62"/>
<path d="M1611.3 705.2L1574.1 766L1544.6 814.2C1544 815.133 1543.37 816.067 1542.7 817C1542.7 817 1542.67 817 1542.6 817C1525.2 838.9 1503.6 858.4 1474.4 855.1L1467.3 854.3C1464.2 853.1 1461 851 1457.8 848.2C1454.5 845.4 1451.3 842 1448.1 838.1C1432.4 818.8 1423.7 794.6 1422.9 769.7L1418.5 633L1458.3 628.4L1489.7 757.1L1515.7 705.3L1535 667.1C1557.8 615.4 1596.7 638.1 1596.7 638.1C1643.5 654.7 1611.3 705.2 1611.3 705.2Z" fill="#FC8763"/>
<path d="M1611.3 705.2L1581 754.8C1556.8 729.4 1520.3 696.3 1520.3 696.3L1535 667.1C1557.8 615.4 1596.7 638.1 1596.7 638.1C1643.5 654.7 1611.3 705.2 1611.3 705.2Z" fill="#E5755E"/>
<path d="M1647 648.3C1645.8 653.3 1644.2 658.8 1642.3 664.6C1634.7 687.8 1623.1 714.7 1617.2 726.5C1614.2 732.3 1607.4 735 1601.3 732.9C1585.2 727.2 1571.5 718.7 1558.3 709.8C1548.5 703.1 1538.9 696.3 1528.8 690.1C1522.5 686.3 1518.2 679.9 1521.5 673.2C1566.5 583.2 1617.2 567 1617.2 567L1629.2 591.2C1648.3 608.7 1652.7 625.7 1647 648.3Z" fill="#6E55BD"/>
<path d="M1642.3 664.6C1634.7 687.8 1623.1 714.7 1617.2 726.5C1614.2 732.3 1607.4 735 1601.3 732.9C1585.2 727.2 1571.5 718.7 1558.3 709.8C1558.3 709.8 1545.7 677.1 1582 638.4C1582 638.4 1617.1 653.1 1642.3 664.6Z" fill="#5C4BA3"/>
<path d="M1707.4 894C1708.8 894.4 1833.3 941.4 1833.3 941.4L1819.6 900.6L1707.4 894Z" fill="#E28914"/>
<path d="M1798.2 750.7C1795.6 762.9 1794.5 775.4 1795.1 787.8C1795.17 789.4 1795.23 790.967 1795.3 792.5L1798.7 807.7L1812.2 868.2L1814.7 879.2L1814.9 880.2L1817.6 892.4H1816.6L1681.3 894.4L1567.5 896.1V896L1591.3 767.5C1593.6 755.2 1590 742.6 1581.8 733.4C1581.4 732.933 1581 732.5 1580.6 732.1C1564.6 713.2 1561.1 686.6 1570.9 663.8L1604 587.3C1609.1 574.6 1612.8 569.4 1622.7 564.6L1674.9 543.2L1750 540.1L1829.4 571.2C1845.5 578.9 1853.3 597.4 1847.6 614.2C1840.3 635.7 1825.4 663.6 1812.6 699.9C1807.2 715.3 1802.1 732.2 1798.2 750.7Z" fill="#6E55BD"/>
<path d="M1900.1 910.2C1895.7 915 1890.7 918.9 1885.3 921.6C1879.9 924.4 1874.1 926 1868.1 926.6C1839.9 928.9 1820.4 916.4 1720.1 897.1L1729.6 858.8L1833.4 855.5C1840.4 855.1 1844.8 849.2 1843.2 843.2L1820.2 772.1L1807.9 734.2L1807.2 717.1C1803.9 699.4 1809.4 681.3 1821.3 670.2L1846.3 646.9C1856.2 637.7 1870.9 642.2 1876 656L1889.3 691.9C1889.3 691.9 1892.6 705.3 1896.9 726C1904 760 1913.8 813.9 1916.5 861.4C1917.5 879.9 1911.5 897.8 1900.1 910.2Z" fill="#FC8763"/>
<path d="M1797.9 751.5C1795.3 763.7 1794.3 776.2 1794.8 788.6C1787.8 749.3 1777.9 700.7 1781.9 666L1812.3 700.7C1806.9 716.1 1801.8 733 1797.9 751.5Z" fill="#5C4BA3"/>
<path d="M1453.8 610.2C1454.2 608.1 1454.8 606.3 1455.7 604.3C1457.6 600 1456.3 595.5 1454.5 591.4C1453.7 589.5 1452.5 587.7 1451.8 585.8C1450.9 583.8 1451.1 581 1451.1 578.9C1451.1 569.2 1453.6 559.6 1457.7 550.9C1457.9 550.5 1458.13 550.067 1458.4 549.6C1460.1 546.2 1460.6 541.4 1457 538.7C1455.2 537.3 1452.6 537.2 1450.5 538.3C1445.3 540.9 1441.7 544.2 1440.6 549.9C1440.2 552.1 1439.9 554.4 1439.4 556.6C1438.8 559.3 1437 566.9 1432.8 564.9C1430.6 563.9 1427.2 560.2 1426.1 558.1C1417.7 541.5 1413.7 533 1402.7 514.8C1400.7 511.5 1399.1 507.8 1395.4 506.6C1392.9 505.8 1388.1 506.5 1387.1 509.5C1386.2 511.9 1389.5 516.6 1390.5 518.8C1394.3 527.4 1398.5 535.8 1402.2 544.4C1406.4 554.2 1410.7 562.9 1402.5 571.5L1390.3 591C1388.2 594.6 1387.8 599 1389.2 602.9C1391.5 609.3 1395.7 613.2 1400.4 620C1406.5 629 1417.5 629.9 1418.7 641L1419 641.7C1420.7 645.3 1424.6 647.4 1428.5 646.9C1434.8 646 1442.9 644.6 1444.1 644.1C1449.3 642.1 1459.7 639.8 1459.7 633.9C1459.7 630.6 1452.8 615.5 1453.8 610.2Z" fill="#FC8763"/>
<path d="M1818.8 543.8L1635.2 542.8C1622.2 541.4 1612.3 529.5 1629.3 504.8L1663.4 453.3C1672 440.5 1674.5 426.5 1662.2 418.2L1653.3 412.3C1648.1 408.9 1643.5 404.8 1639.5 400.2C1620.9 379 1614.4 347 1625.4 318.9C1625.8 317.967 1626.2 317.033 1626.6 316.1C1629.6 309.3 1633.8 303.1 1639.5 298.9C1656.5 286.4 1673.5 297.8 1686.1 310.5C1689.5 314 1692.8 317.6 1696.7 320.3C1714.4 332.7 1739.4 323.5 1757.2 335.6C1768.2 343 1774.1 356.8 1778.7 370.2C1783.2 383.6 1787.3 397.7 1796.4 407.9C1802.7 415 1810.9 419.5 1818.1 425.5C1827.2 433.2 1834.7 443.3 1840 454.7C1845.3 466.1 1848.5 478.5 1850.2 491.3C1853.1 512.8 1851.8 543.8 1818.8 543.8Z" fill="#160B09"/>
<path d="M1895 716.7C1862 742.6 1819.2 761.6 1817.2 763L1807.9 734.2L1807.2 717.1C1803.9 699.4 1809.4 681.3 1821.3 670.2L1846.3 646.9C1856.2 637.7 1870.9 642.2 1876 656L1889.3 691.9C1889.3 691.9 1890.7 696 1895 716.7Z" fill="#E5755E"/>
<path d="M1751.5 444L1751.1 453.9L1750.4 474.9L1748.1 539.7C1748.1 539.7 1743.7 563 1689.2 589C1685.1 590.9 1674.2 594.6 1669.9 593.4C1661.2 591.1 1659.8 571.2 1675.2 537.7L1679 521.6L1686.2 492L1744.2 449.3L1751.5 444Z" fill="#FC8763"/>
<path d="M1837.3 577.3C1837.3 577.3 1869.5 602.5 1898.5 691.7C1900.8 698.7 1897.3 706.4 1890.4 709.2L1818.1 744.3C1811.1 747.2 1805.6 744.1 1802.4 737.3C1796 723.7 1783 682 1778.9 651.6C1770.1 587.1 1790.7 564.5 1828.3 571.2L1837.3 577.3Z" fill="#6E55BD"/>
<path d="M1760.9 460.4C1757.6 465.7 1753.9 466.8 1750.5 471.5C1728.5 502.1 1696.1 516.2 1679 521.6L1686.2 492L1744.2 449.3L1751.1 453.9L1760.9 460.4Z" fill="#E5755E"/>
<path d="M1682.6 500C1707.2 498.8 1740.1 480.5 1757.7 462.9C1772.4 448.2 1779.2 425.3 1776.4 397.3C1774.8 380.5 1771.2 363.1 1760.2 350.3C1752.4 341.1 1741.2 335 1729.5 332.5C1717.7 329.9 1705.3 330.8 1693.7 334C1684.3 336.5 1675.2 340.7 1668.6 347.9C1660.5 356.5 1657.2 368.4 1654.4 379.9C1650.3 396.5 1646.7 413.3 1645.7 430.4C1644.7 447.4 1646.3 464.8 1652.3 480.8C1654.4 486.5 1657.3 492.2 1662.2 495.8C1668 499.9 1675.5 500.4 1682.6 500Z" fill="#FC8763"/>
<path d="M1817 515.2H1766.1C1745.4 515.2 1745 477.9 1746.3 458.7C1746.7 452.2 1749.2 446.1 1753.5 441.5C1770 423.7 1757.5 416.4 1757.5 416.4C1746.3 411.4 1737.9 427 1737.9 427C1726.5 424.6 1726.5 402.7 1727.5 390.2C1727.8 386.8 1726.2 383.6 1723.5 381.8C1722.4 381.1 1721.2 380.6 1719.9 380.4C1684.9 374.6 1673.1 352.4 1673.1 352.4C1672.7 352.733 1672.3 353.067 1671.9 353.4C1651.8 370.7 1648.3 406.8 1648.3 406.8C1629.2 385.3 1623.2 343.2 1633.7 317.1C1634.03 316.233 1634.4 315.367 1634.8 314.5C1637.6 308.1 1641.7 302.4 1647.1 298.5C1648.37 297.567 1649.67 296.767 1651 296.1C1665.7 288.7 1680.2 298.5 1691.2 309.3C1694.4 312.5 1697.6 315.9 1701.3 318.4C1718.1 329.9 1741.7 321.4 1758.7 332.6C1769.1 339.5 1774.7 352.3 1779 364.7C1783.3 377.2 1787.2 390.3 1795.8 399.7C1801.8 406.3 1809.6 410.5 1816.4 416.1C1825.1 423.2 1832.1 432.7 1837.1 443.2C1842.2 453.8 1845.2 465.3 1846.8 477.2C1849.6 497.2 1835.5 515.2 1817 515.2Z" fill="#160B09"/>
<path d="M1821.7 543.8L1744.2 543.6C1712.8 543.1 1741.4 480.5 1746.3 458.7C1747.7 452.3 1749.2 446.1 1753.5 441.5C1770 423.7 1757.5 416.4 1757.5 416.4C1746.3 411.4 1737.9 427 1737.9 427C1726.5 424.6 1726.5 402.7 1727.5 390.2C1727.8 386.8 1726.2 383.6 1723.5 381.8C1699.3 377.7 1682.9 366.9 1671.9 353.4C1658 336.2 1652.7 314.6 1651 296.1C1665.7 288.7 1680.2 298.5 1691.2 309.3C1694.4 312.5 1697.6 315.9 1701.3 318.4C1718.1 329.9 1741.7 321.4 1758.7 332.6C1769.1 339.5 1774.7 352.3 1779 364.7C1783.3 377.2 1787.2 390.3 1795.8 399.7C1801.8 406.3 1809.6 410.5 1816.4 416.1C1825.1 423.2 1832.1 432.7 1837.1 443.2C1842.2 453.8 1845.2 464.7 1848.4 476.3C1854.2 497.4 1859.3 541 1821.7 543.8Z" fill="#4C241E"/>
<path d="M1657.6 864.2C1659.6 863.1 1661.6 861.8 1663.9 861.9C1663.8 863.1 1662.7 863.8 1661.6 864.4C1657.8 866.6 1654 868.8 1650 870.6C1649.1 871 1648.1 871.4 1647.3 872.1C1646.6 872.8 1646.1 873.9 1646.3 874.9C1646.9 877.2 1651.3 876.8 1652.9 876.6C1658.4 875.7 1663.8 874.8 1669.2 873.7C1676.1 872.2 1683.8 871.8 1688.9 876.8C1691.7 879.5 1693.3 883.3 1695.7 886.5C1699.7 892 1702.5 892.9 1712.3 895.3C1720.4 897.2 1725.2 898.4 1732.5 899C1736.2 890.8 1737.8 858.5 1737.8 858.5C1728.6 858.2 1716.1 856.8 1707.5 851.2C1704.6 849.2 1702.3 846.4 1699.7 843.8C1693.4 837.5 1685.3 833.2 1676.6 831.2C1672.3 830.2 1667.9 829.8 1663.5 829.9C1659 830 1657.1 831.3 1653.5 833.6C1652.3 834.3 1651 834.7 1649.7 835.1C1640.3 838.3 1631.6 843.2 1623.3 848.4C1616.4 852.7 1608.7 856 1603.8 862.9C1601.6 865.9 1602.8 868.8 1606.5 869.5C1611.1 870.3 1615.4 867.9 1619 865.5C1624.3 862.1 1629.1 859.4 1634.9 856.9C1637.6 855.7 1641.3 854 1644.3 854.7C1642.5 856.8 1639.9 857.9 1637.3 858.9C1632 861.2 1625.5 863.6 1621 867.1C1617.1 870.2 1617.9 873.7 1622.8 874.9C1626.2 875.7 1629.9 874.7 1633.1 873.5C1641 870.5 1650.2 868.3 1657.6 864.2Z" fill="#FC8763"/>
<path d="M1687.1 988.4H1563.7C1560.9 988.4 1558.5 986.5 1558 983.7L1521 803.4C1519.9 797.1 1514.3 792.4 1507.9 792.4H1265.2C1256.9 792.4 1250.6 800 1252.1 808.2L1290 993.3C1291.1 999.7 1296.7 1004.3 1303.1 1004.3H1545.8H1687.4C1692 1004.3 1695.6 1000.5 1695.3 995.9C1695.1 991.6 1691.4 988.4 1687.1 988.4Z" fill="#7D798C"/>
<path d="M1406.5 900.4C1405 893.9 1399.5 889.6 1394.1 890.8C1388.8 892 1385.7 898.3 1387.1 904.8C1388.6 911.3 1394.2 915.6 1399.5 914.4C1404.8 913.2 1408 906.9 1406.5 900.4Z" fill="#D2C6F1"/>
</svg>
